if (_typeface_js && _typeface_js.loadFace) _typeface_js.loadFace({"glyphs":{"¦":{"x_min":42,"x_max":264,"ha":306,"o":"m 264 486 l 42 486 l 43 888 l 264 888 l 264 486 m 264 0 l 42 0 l 43 402 l 264 402 l 264 0 "},"₅":{"x_min":40.28125,"x_max":302.796875,"ha":347,"o":"m 127 0 l 40 0 l 40 83 l 209 83 l 215 41 l 215 100 l 40 100 l 40 265 l 127 265 l 219 265 l 302 265 l 302 183 l 134 183 l 127 225 l 127 166 l 302 166 l 302 0 l 219 0 l 127 0 "},"Ő":{"x_min":41.671875,"x_max":929.234375,"ha":971,"o":"m 354 597 l 354 291 l 188 270 l 784 270 l 618 291 l 618 597 l 784 618 l 191 618 l 354 597 m 41 0 l 41 888 l 929 888 l 929 0 l 41 0 m 329 1095 l 508 1095 l 429 944 l 244 944 l 329 1095 m 598 1095 l 777 1095 l 698 944 l 513 944 l 598 1095 "},"Ž":{"x_min":41.671875,"x_max":888.953125,"ha":931,"o":"m 369 1000 l 597 1000 l 488 1019 l 527 1095 l 708 1095 l 633 944 l 329 944 l 250 1095 l 429 1095 l 468 1019 l 369 1000 m 597 743 l 416 618 l 41 618 l 41 887 l 888 887 l 888 625 l 319 131 l 526 277 l 888 277 l 888 0 l 41 0 l 41 277 l 597 743 "},"Á":{"x_min":41.671875,"x_max":929.234375,"ha":972,"o":"m 783 618 l 186 618 l 345 597 l 345 444 l 186 423 l 783 423 l 623 444 l 623 597 l 783 618 m 929 888 l 929 0 l 623 0 l 623 152 l 783 180 l 200 180 l 345 152 l 345 0 l 41 0 l 41 888 l 929 888 m 445 1095 l 625 1095 l 545 944 l 361 944 l 445 1095 "},"е":{"x_min":41.671875,"x_max":847.296875,"ha":888,"o":"m 354 277 l 847 277 l 847 0 l 41 0 l 41 887 l 847 887 l 847 610 l 354 610 l 333 749 l 333 554 l 777 554 l 777 330 l 333 330 l 333 148 l 354 277 l 354 277 "},"ĥ":{"x_min":41.671875,"x_max":929.234375,"ha":971,"o":"m 41 888 l 354 888 l 354 618 l 183 597 l 777 597 l 618 618 l 618 888 l 929 888 l 929 0 l 618 0 l 618 269 l 788 290 l 183 290 l 354 269 l 354 0 l 41 0 l 41 888 l 41 888 m 469 1020 l 430 944 l 251 944 l 330 1095 l 634 1095 l 709 944 l 529 944 l 490 1020 l 598 1040 l 370 1040 l 469 1020 "},"Î":{"x_min":23.609375,"x_max":347.25,"ha":389,"o":"m 41 0 l 41 888 l 347 888 l 347 0 l 41 0 l 41 0 m 287 944 l 102 944 l 23 1095 l 202 1095 l 287 944 "},"e":{"x_min":41.671875,"x_max":847.296875,"ha":888,"o":"m 354 277 l 847 277 l 847 0 l 41 0 l 41 887 l 847 887 l 847 610 l 354 610 l 333 749 l 333 554 l 777 554 l 777 330 l 333 330 l 333 148 l 354 277 "},"»":{"x_min":19.453125,"x_max":804.234375,"ha":804,"o":"m 19 708 l 283 708 l 455 444 l 283 181 l 19 181 l 193 444 l 19 708 m 368 708 l 632 708 l 804 444 l 632 181 l 368 181 l 541 444 l 368 708 "},"ļ":{"x_min":41.671875,"x_max":861.1875,"ha":903,"o":"m 368 271 l 861 271 l 861 0 l 41 0 l 41 888 l 347 888 l 347 125 l 368 271 m 426 -238 l 426 -172 l 522 -151 l 372 -151 l 372 -26 l 537 -26 l 537 -251 l 426 -238 "},"Ĕ":{"x_min":41.671875,"x_max":847.296875,"ha":888,"o":"m 354 277 l 847 277 l 847 0 l 41 0 l 41 887 l 847 887 l 847 610 l 354 610 l 333 749 l 333 554 l 777 554 l 777 330 l 333 330 l 333 148 l 354 277 m 290 998 l 607 998 l 497 1018 l 497 1094 l 677 1094 l 677 943 l 220 943 l 220 1094 l 387 1094 l 387 1018 l 290 998 "},"Ѓ":{"x_min":41.671875,"x_max":861.1875,"ha":903,"o":"m 368 617 l 347 762 l 347 0 l 41 0 l 41 888 l 861 888 l 861 617 l 368 617 m 415 1095 l 594 1095 l 515 944 l 330 944 l 415 1095 "},"ò":{"x_min":41.671875,"x_max":929.234375,"ha":972,"o":"m 572 944 l 387 944 l 308 1095 l 487 1095 l 572 944 m 191 618 l 784 618 l 618 597 l 618 291 l 784 270 l 188 270 l 354 291 l 354 597 l 191 618 m 929 0 l 929 888 l 41 888 l 41 0 l 929 0 "},"ţ":{"x_min":41.671875,"x_max":916.734375,"ha":957,"o":"m 333 0 l 333 749 l 311 611 l 41 611 l 41 888 l 916 888 l 916 611 l 644 611 l 623 751 l 623 0 l 333 0 m 451 -240 l 451 -173 l 547 -152 l 397 -152 l 397 -27 l 562 -27 l 562 -252 l 451 -240 "},"^":{"x_min":43.0625,"x_max":501.421875,"ha":542,"o":"m 261 1020 l 222 944 l 43 944 l 122 1095 l 426 1095 l 501 944 l 320 944 l 281 1020 l 390 1040 l 162 1040 l 261 1020 "},"«":{"x_min":-1.390625,"x_max":783.390625,"ha":806,"o":"m 609 444 l 783 181 l 519 181 l 347 444 l 519 708 l 783 708 l 609 444 m 261 444 l 434 181 l 170 181 l -1 444 l 170 708 l 434 708 l 261 444 "},"ⁿ":{"x_min":41.671875,"x_max":306.96875,"ha":347,"o":"m 84 807 l 129 800 l 129 622 l 41 622 l 41 888 l 306 888 l 306 622 l 220 622 l 220 800 l 263 807 l 84 807 l 84 807 "},"к":{"x_min":41.671875,"x_max":929.234375,"ha":953,"o":"m 623 443 l 929 0 l 570 0 l 444 190 l 312 0 l 41 0 l 41 888 l 347 888 l 347 592 l 263 433 l 570 888 l 929 888 l 623 443 "},"⁻":{"x_min":41.671875,"x_max":179.1875,"ha":224,"o":"m 41 887 l 179 887 l 179 820 l 41 820 l 41 887 "},"í":{"x_min":41.671875,"x_max":358.359375,"ha":389,"o":"m 41 0 l 41 888 l 347 888 l 347 0 l 41 0 l 41 0 m 179 1095 l 358 1095 l 279 944 l 94 944 l 179 1095 "},"ˆ":{"x_min":43.0625,"x_max":501.421875,"ha":542,"o":"m 261 1021 l 222 945 l 43 945 l 122 1096 l 426 1096 l 501 945 l 320 945 l 281 1021 l 390 1040 l 162 1040 l 261 1021 "},"ū":{"x_min":41.671875,"x_max":929.234375,"ha":971,"o":"m 188 270 l 786 270 l 638 291 l 638 888 l 929 888 l 929 0 l 41 0 l 41 888 l 333 888 l 333 291 l 188 270 m 255 1070 l 713 1070 l 713 945 l 255 945 l 255 1070 "},"Ẅ":{"x_min":20.828125,"x_max":1034.8125,"ha":1057,"o":"m 637 0 l 534 147 l 429 0 l 180 0 l 20 888 l 312 888 l 395 500 l 323 356 l 451 556 l 616 556 l 751 356 l 675 500 l 743 888 l 1034 888 l 888 0 l 637 0 m 222 1070 l 388 1070 l 388 945 l 222 945 l 222 1070 m 666 1070 l 833 1070 l 833 945 l 666 945 l 666 1070 "},"ņ":{"x_min":41.671875,"x_max":929.234375,"ha":972,"o":"m 625 528 l 625 888 l 929 888 l 929 0 l 625 0 l 220 571 l 347 359 l 347 0 l 41 0 l 41 888 l 347 888 l 750 316 l 625 528 m 456 -240 l 456 -173 l 552 -152 l 402 -152 l 402 -27 l 568 -27 l 568 -252 l 456 -240 "},"µ":{"x_min":41.671875,"x_max":929.234375,"ha":974,"o":"m 220 352 l 331 137 l 331 -222 l 41 -222 l 41 663 l 347 663 l 484 441 l 625 663 l 929 663 l 929 0 l 637 0 l 637 137 l 748 352 l 575 88 l 394 88 l 220 352 l 220 352 "},"ỳ":{"x_min":23.609375,"x_max":911.1875,"ha":931,"o":"m 604 266 l 604 0 l 320 0 l 320 266 l 23 888 l 320 888 l 452 601 l 412 468 l 613 888 l 911 888 l 604 266 m 562 944 l 377 944 l 298 1095 l 477 1095 l 562 944 "},"č":{"x_min":41.671875,"x_max":855.625,"ha":897,"o":"m 333 764 l 333 138 l 354 270 l 855 270 l 855 0 l 41 0 l 41 888 l 855 888 l 855 618 l 354 618 l 333 764 l 333 764 m 345 1000 l 573 1000 l 465 1019 l 504 1095 l 684 1095 l 609 944 l 305 944 l 226 1095 l 405 1095 l 444 1019 l 345 1000 "},"’":{"x_min":0,"x_max":166.6875,"ha":167,"o":"m 55 900 l 55 966 l 151 987 l 0 987 l 0 1112 l 166 1112 l 166 887 l 55 900 "},"-":{"x_min":41.671875,"x_max":500.046875,"ha":542,"o":"m 41 554 l 500 554 l 500 332 l 41 332 l 41 554 "},"ѕ":{"x_min":41.671875,"x_max":916.734375,"ha":958,"o":"m 41 888 l 916 888 l 916 612 l 354 612 l 333 750 l 333 555 l 916 555 l 916 0 l 41 0 l 41 278 l 602 278 l 623 139 l 623 333 l 41 333 l 41 888 l 41 888 "},"Q":{"x_min":41.671875,"x_max":929.234375,"ha":972,"o":"m 354 597 l 354 291 l 187 270 l 783 270 l 618 291 l 618 597 l 783 618 l 187 618 l 354 597 m 720 0 l 41 0 l 41 887 l 929 887 l 929 0 l 813 0 l 929 -146 l 597 -146 l 500 -20 l 720 0 "},"Ш":{"x_min":42,"x_max":1483,"ha":1527,"o":"m 914 271 l 1340 271 l 1193 291 l 1193 888 l 1483 888 l 1483 0 l 42 0 l 42 888 l 334 888 l 334 291 l 189 271 l 610 271 l 610 888 l 915 888 l 914 271 "},"M":{"x_min":41.671875,"x_max":929.234375,"ha":974,"o":"m 220 576 l 331 361 l 331 0 l 41 0 l 41 888 l 347 888 l 484 665 l 625 888 l 929 888 l 929 0 l 637 0 l 637 361 l 748 576 l 575 312 l 394 312 l 220 576 l 220 576 "},"ј":{"x_min":41.671875,"x_max":625.046875,"ha":667,"o":"m 319 159 l 319 743 l 298 611 l 172 611 l 172 888 l 625 888 l 625 0 l 41 0 l 41 277 l 298 277 l 319 159 "},"̦":{"x_min":41.671875,"x_max":206.96875,"ha":250,"o":"m 95 -87 l 95 -20 l 191 0 l 41 0 l 41 125 l 206 125 l 206 -100 l 95 -87 "},"œ":{"x_min":41.671875,"x_max":1111.203125,"ha":1153,"o":"m 808 278 l 1111 278 l 1111 0 l 41 0 l 41 887 l 1111 887 l 1111 611 l 808 611 l 787 750 l 787 569 l 1041 569 l 1041 319 l 787 319 l 787 148 l 808 278 m 354 597 l 354 291 l 188 271 l 526 271 l 526 618 l 191 618 l 354 597 "},"ě":{"x_min":41.671875,"x_max":847.296875,"ha":888,"o":"m 345 1000 l 573 1000 l 465 1019 l 504 1095 l 684 1095 l 609 944 l 305 944 l 226 1095 l 405 1095 l 444 1019 l 345 1000 m 354 277 l 847 277 l 847 0 l 41 0 l 41 887 l 847 887 l 847 610 l 354 610 l 333 749 l 333 554 l 777 554 l 777 330 l 333 330 l 333 148 l 354 277 "},"ũ":{"x_min":41.671875,"x_max":929.234375,"ha":971,"o":"m 188 270 l 786 270 l 638 291 l 638 888 l 929 888 l 929 0 l 41 0 l 41 888 l 333 888 l 333 291 l 188 270 m 390 1020 l 498 1040 l 270 1040 l 369 1020 l 330 944 l 151 944 l 151 1095 l 538 1095 l 576 1019 l 480 1000 l 707 1000 l 598 1019 l 637 1095 l 818 1095 l 818 944 l 429 944 l 390 1020 "},"ŭ":{"x_min":41.671875,"x_max":929.234375,"ha":971,"o":"m 188 270 l 786 270 l 638 291 l 638 888 l 929 888 l 929 0 l 41 0 l 41 888 l 333 888 l 333 291 l 188 270 m 326 998 l 643 998 l 533 1018 l 533 1094 l 713 1094 l 713 943 l 256 943 l 256 1094 l 423 1094 l 423 1018 l 326 998 "},"₍":{"x_min":43.0625,"x_max":138.90625,"ha":153,"o":"m 138 -111 l 43 -111 l 43 284 l 138 284 l 138 215 l 116 215 l 109 265 l 109 -93 l 116 -44 l 138 -44 l 138 -111 "},"{":{"x_min":-27.78125,"x_max":361.140625,"ha":344,"o":"m 359 -208 l 40 -208 l 41 269 l 62 250 l -27 444 l 63 643 l 41 618 l 41 1107 l 361 1107 l 361 875 l 284 875 l 263 1044 l 263 598 l 194 444 l 263 293 l 263 -147 l 284 13 l 359 13 l 359 -208 "},"¼":{"x_min":37.5,"x_max":308.359375,"ha":347,"o":"m 127 700 l 176 707 l 120 707 l 94 707 l 127 793 l 219 793 l 219 527 l 127 527 l 127 700 m 40 375 l 133 375 l 133 261 l 81 255 l 261 255 l 212 261 l 212 375 l 305 375 l 305 109 l 212 109 l 212 156 l 263 163 l 81 163 l 40 163 l 40 375 m 37 483 l 308 483 l 308 416 l 37 416 l 37 483 "},"#":{"x_min":41.59375,"x_max":942.78125,"ha":986,"o":"m 790 888 l 790 736 l 942 736 l 942 500 l 815 500 l 790 623 l 790 375 l 942 375 l 942 139 l 815 139 l 790 262 l 790 -14 l 554 -14 l 554 139 l 454 139 l 429 262 l 429 -14 l 193 -14 l 193 139 l 41 139 l 41 375 l 172 375 l 193 236 l 193 500 l 41 500 l 41 736 l 174 736 l 193 597 l 193 888 l 429 888 l 429 736 l 534 736 l 555 597 l 553 888 l 790 888 m 429 375 l 535 375 l 554 236 l 554 500 l 452 500 l 429 623 l 429 375 "},"Ĳ":{"x_min":41.671875,"x_max":1013.96875,"ha":1056,"o":"m 708 159 l 708 743 l 687 611 l 561 611 l 561 888 l 1013 888 l 1013 0 l 430 0 l 430 277 l 687 277 l 708 159 m 41 0 l 41 888 l 347 888 l 347 0 l 41 0 "},"Ê":{"x_min":41.671875,"x_max":847.296875,"ha":888,"o":"m 434 1020 l 395 944 l 216 944 l 295 1095 l 600 1095 l 675 944 l 494 944 l 455 1020 l 563 1040 l 336 1040 l 434 1020 m 354 278 l 847 278 l 847 0 l 41 0 l 41 888 l 847 888 l 847 611 l 354 611 l 333 750 l 333 554 l 777 554 l 777 330 l 333 330 l 333 148 l 354 278 "},"Џ":{"x_min":42,"x_max":929,"ha":973,"o":"m 470 -212 l 470 -145 l 566 -125 l 415 -125 l 415 0 l 582 0 l 582 -225 l 470 -212 m 189 271 l 786 271 l 639 291 l 639 888 l 929 888 l 929 0 l 42 0 l 42 888 l 334 888 l 334 291 l 189 271 "},")":{"x_min":19.453125,"x_max":381.96875,"ha":424,"o":"m 19 13 l 137 13 l 158 -147 l 158 1048 l 137 879 l 19 879 l 19 1111 l 380 1111 l 381 -206 l 19 -206 l 19 13 "},"э":{"x_min":41.671875,"x_max":847.296875,"ha":888,"o":"m 534 277 l 555 148 l 555 330 l 111 330 l 111 554 l 555 554 l 555 749 l 534 610 l 41 610 l 41 887 l 847 887 l 847 0 l 41 0 l 41 277 l 534 277 l 534 277 "},"ș":{"x_min":41.671875,"x_max":916.734375,"ha":958,"o":"m 41 888 l 916 888 l 916 612 l 354 612 l 333 750 l 333 555 l 916 555 l 916 0 l 41 0 l 41 278 l 602 278 l 623 139 l 623 333 l 41 333 l 41 888 m 456 -240 l 456 -173 l 552 -152 l 402 -152 l 402 -27 l 568 -27 l 568 -252 l 456 -240 "},"Å":{"x_min":41.671875,"x_max":929.234375,"ha":972,"o":"m 783 618 l 186 618 l 345 597 l 345 444 l 186 423 l 783 423 l 623 444 l 623 597 l 783 618 m 929 888 l 929 0 l 623 0 l 623 152 l 783 180 l 200 180 l 345 152 l 345 0 l 41 0 l 41 888 l 929 888 m 623 902 l 345 902 l 345 1111 l 623 1111 l 623 902 m 440 1034 l 440 979 l 393 958 l 576 958 l 526 979 l 526 1034 l 576 1055 l 393 1055 l 440 1034 "},"ш":{"x_min":42,"x_max":1483,"ha":1527,"o":"m 914 271 l 1340 271 l 1193 291 l 1193 888 l 1483 888 l 1483 0 l 42 0 l 42 888 l 334 888 l 334 291 l 189 271 l 610 271 l 610 888 l 915 888 l 914 271 "},"Я":{"x_min":41.671875,"x_max":929.234375,"ha":971,"o":"m 181 618 l 350 597 l 350 451 l 181 430 l 626 430 l 626 618 l 181 618 m 337 166 l 491 145 l 387 0 l 43 0 l 179 166 l 41 166 l 41 888 l 929 888 l 929 0 l 616 0 l 616 145 l 783 166 l 337 166 "},"₈":{"x_min":41.671875,"x_max":308.359375,"ha":347,"o":"m 129 125 l 129 87 l 84 80 l 259 80 l 220 87 l 220 125 l 129 125 m 84 184 l 129 179 l 129 154 l 220 154 l 220 179 l 259 184 l 84 184 m 87 134 l 41 147 l 41 265 l 308 265 l 308 145 l 259 134 l 308 134 l 308 0 l 41 0 l 41 134 l 87 134 "},"¸":{"x_min":19.453125,"x_max":184.734375,"ha":208,"o":"m 130 -12 l 130 -79 l 34 -100 l 184 -100 l 184 -225 l 19 -225 l 19 0 l 130 -12 "},"a":{"x_min":41.671875,"x_max":929.234375,"ha":972,"o":"m 347 597 l 347 444 l 187 423 l 784 423 l 625 444 l 625 597 l 784 618 l 187 618 l 347 597 m 929 887 l 929 0 l 625 0 l 625 152 l 770 180 l 187 180 l 347 152 l 347 0 l 41 0 l 41 887 l 929 887 "},"Ę":{"x_min":41.671875,"x_max":847.296875,"ha":889,"o":"m 750 -13 l 750 -79 l 654 -100 l 804 -100 l 804 -225 l 638 -225 l 638 0 l 750 -13 m 354 278 l 847 278 l 847 0 l 41 0 l 41 888 l 847 888 l 847 611 l 354 611 l 333 750 l 333 554 l 777 554 l 777 330 l 333 330 l 333 148 l 354 278 "},"=":{"x_min":41.671875,"x_max":611.15625,"ha":653,"o":"m 41 736 l 611 736 l 611 500 l 41 500 l 41 736 m 41 375 l 611 375 l 611 138 l 41 138 l 41 375 "},"Ћ":{"x_min":19.453125,"x_max":948.6875,"ha":993,"o":"m 19 888 l 408 888 l 408 792 l 372 792 l 372 707 l 948 707 l 948 0 l 637 0 l 637 379 l 808 400 l 212 400 l 372 379 l 372 0 l 61 0 l 61 769 l 220 792 l 47 792 l 19 792 l 19 888 "},"˚":{"x_min":42,"x_max":320,"ha":360,"o":"m 320 903 l 42 903 l 42 1111 l 320 1111 l 320 903 m 136 1034 l 136 979 l 89 959 l 272 959 l 222 979 l 222 1034 l 272 1055 l 89 1055 l 136 1034 "},"ú":{"x_min":41.671875,"x_max":929.234375,"ha":971,"o":"m 188 270 l 786 270 l 638 291 l 638 888 l 929 888 l 929 0 l 41 0 l 41 888 l 333 888 l 333 291 l 188 270 m 479 1095 l 658 1095 l 579 944 l 394 944 l 479 1095 "},"д":{"x_min":22.21875,"x_max":1000.078125,"ha":1022,"o":"m 22 -96 l 22 224 l 100 224 l 220 888 l 812 888 l 926 222 l 1000 222 l 1000 -96 l 768 -96 l 768 -20 l 937 0 l 81 0 l 243 -20 l 243 -96 l 22 -96 m 495 589 l 427 222 l 594 222 l 527 589 l 665 610 l 369 610 l 495 589 "},"¯":{"x_min":41.671875,"x_max":500.046875,"ha":542,"o":"m 41 1069 l 500 1069 l 500 944 l 41 944 l 41 1069 "},"Z":{"x_min":41.671875,"x_max":888.953125,"ha":931,"o":"m 597 743 l 416 618 l 41 618 l 41 887 l 888 887 l 888 625 l 319 131 l 526 277 l 888 277 l 888 0 l 41 0 l 41 277 l 597 743 l 597 743 "},"⁸":{"x_min":41.671875,"x_max":308.359375,"ha":347,"o":"m 129 747 l 129 709 l 84 702 l 259 702 l 220 709 l 220 747 l 129 747 m 84 807 l 129 801 l 129 776 l 220 776 l 220 801 l 259 807 l 84 807 m 87 757 l 41 769 l 41 888 l 308 888 l 308 768 l 259 757 l 308 757 l 308 622 l 41 622 l 41 757 l 87 757 "},"u":{"x_min":41.671875,"x_max":929.234375,"ha":972,"o":"m 188 270 l 786 270 l 638 291 l 638 888 l 929 888 l 929 0 l 41 0 l 41 888 l 333 888 l 333 291 l 188 270 l 188 270 "},"k":{"x_min":41.671875,"x_max":929.234375,"ha":945,"o":"m 623 443 l 929 0 l 570 0 l 444 190 l 312 0 l 41 0 l 41 888 l 347 888 l 347 592 l 263 433 l 570 888 l 929 888 l 623 443 "},"Ù":{"x_min":41.671875,"x_max":929.234375,"ha":971,"o":"m 577 944 l 393 944 l 313 1095 l 493 1095 l 577 944 m 188 270 l 786 270 l 638 291 l 638 888 l 929 888 l 929 0 l 41 0 l 41 888 l 333 888 l 333 291 l 188 270 "},"З":{"x_min":41.078125,"x_max":847,"ha":887,"o":"m 534 278 l 555 148 l 555 333 l 110 333 l 110 557 l 555 557 l 555 750 l 534 612 l 41 612 l 41 888 l 847 888 l 847 467 l 763 445 l 847 422 l 847 0 l 41 0 l 41 278 l 534 278 l 534 278 "},"⅝":{"x_min":37.5,"x_max":308.359375,"ha":347,"o":"m 37 416 l 308 416 l 308 483 l 37 483 l 37 416 m 220 234 l 220 197 l 259 190 l 84 190 l 129 197 l 129 234 l 220 234 m 259 294 l 220 288 l 220 263 l 129 263 l 129 288 l 84 294 l 259 294 m 41 244 l 41 109 l 308 109 l 308 244 l 259 244 l 308 255 l 308 375 l 41 375 l 41 256 l 87 244 l 41 244 m 127 526 l 40 526 l 40 609 l 209 609 l 215 568 l 215 626 l 40 626 l 40 791 l 127 791 l 219 791 l 302 791 l 302 709 l 134 709 l 127 751 l 127 693 l 302 693 l 302 526 l 219 526 l 127 526 "},"Ů":{"x_min":41.671875,"x_max":929.234375,"ha":972,"o":"m 188 270 l 786 270 l 638 291 l 638 888 l 929 888 l 929 0 l 41 0 l 41 888 l 333 888 l 333 291 l 188 270 l 188 270 m 623 902 l 345 902 l 345 1111 l 623 1111 l 623 902 m 440 1034 l 440 979 l 393 958 l 576 958 l 526 979 l 526 1034 l 576 1055 l 393 1055 l 440 1034 "},"¢":{"x_min":42,"x_max":862.03125,"ha":904,"o":"m 306 986 l 612 986 l 612 818 l 632 888 l 862 888 l 862 619 l 354 619 l 334 764 l 334 139 l 354 271 l 862 271 l 862 0 l 634 0 l 612 84 l 612 -97 l 306 -97 l 306 0 l 42 0 l 42 888 l 306 888 l 306 986 "},"Ş":{"x_min":41.671875,"x_max":916.734375,"ha":958,"o":"m 41 888 l 916 888 l 916 612 l 354 612 l 333 750 l 333 555 l 916 555 l 916 0 l 41 0 l 41 278 l 602 278 l 623 139 l 623 333 l 41 333 l 41 888 l 41 888 m 450 -212 l 450 -145 l 545 -125 l 395 -125 l 395 0 l 561 0 l 561 -225 l 450 -212 "},"é":{"x_min":41.671875,"x_max":847.296875,"ha":892,"o":"m 445 1095 l 625 1095 l 545 944 l 361 944 l 445 1095 m 354 278 l 847 278 l 847 0 l 41 0 l 41 888 l 847 888 l 847 611 l 354 611 l 333 750 l 333 554 l 777 554 l 777 330 l 333 330 l 333 148 l 354 278 "},"B":{"x_min":41.671875,"x_max":930.625,"ha":972,"o":"m 333 416 l 333 291 l 187 270 l 638 270 l 638 416 l 333 416 m 187 618 l 333 598 l 333 514 l 638 514 l 638 618 l 187 618 m 930 489 l 770 451 l 930 451 l 930 0 l 41 0 l 41 888 l 930 888 l 930 489 "},"…":{"x_min":41.671875,"x_max":625.046875,"ha":667,"o":"m 41 125 l 208 125 l 208 0 l 41 0 l 41 125 m 250 125 l 416 125 l 416 0 l 250 0 l 250 125 m 458 125 l 625 125 l 625 0 l 458 0 l 458 125 "},"В":{"x_min":41.671875,"x_max":930.625,"ha":972,"o":"m 333 416 l 333 291 l 187 270 l 638 270 l 638 416 l 333 416 m 187 618 l 333 598 l 333 514 l 638 514 l 638 618 l 187 618 m 930 489 l 770 451 l 930 451 l 930 0 l 41 0 l 41 888 l 930 888 l 930 489 "},"І":{"x_min":41.671875,"x_max":347.25,"ha":389,"o":"m 41 0 l 41 888 l 347 888 l 347 0 l 41 0 l 41 0 "},"ē":{"x_min":41.671875,"x_max":847.296875,"ha":888,"o":"m 215 1070 l 673 1070 l 673 945 l 215 945 l 215 1070 m 354 277 l 847 277 l 847 0 l 41 0 l 41 887 l 847 887 l 847 610 l 354 610 l 333 749 l 333 554 l 777 554 l 777 330 l 333 330 l 333 148 l 354 277 "},"H":{"x_min":41.671875,"x_max":929.234375,"ha":971,"o":"m 41 888 l 354 888 l 354 618 l 183 597 l 777 597 l 618 618 l 618 888 l 929 888 l 929 0 l 618 0 l 618 269 l 788 290 l 183 290 l 354 269 l 354 0 l 41 0 l 41 888 l 41 888 "},"î":{"x_min":-33.34375,"x_max":425.03125,"ha":389,"o":"m 41 0 l 41 888 l 347 888 l 347 0 l 41 0 l 41 0 m 184 1020 l 145 944 l -33 944 l 45 1095 l 350 1095 l 425 944 l 244 944 l 205 1020 l 313 1040 l 86 1040 l 184 1020 "},"⅜":{"x_min":37.5,"x_max":308.359375,"ha":347,"o":"m 37 483 l 308 483 l 308 416 l 37 416 l 37 483 m 206 572 l 206 627 l 73 627 l 73 694 l 206 694 l 206 752 l 200 711 l 52 711 l 52 793 l 294 793 l 294 668 l 269 661 l 294 654 l 294 527 l 52 527 l 52 611 l 200 611 l 206 572 m 129 234 l 129 197 l 84 190 l 259 190 l 220 197 l 220 234 l 129 234 m 84 294 l 129 288 l 129 263 l 220 263 l 220 288 l 259 294 l 84 294 m 87 244 l 41 256 l 41 375 l 308 375 l 308 255 l 259 244 l 308 244 l 308 109 l 41 109 l 41 244 l 87 244 "},"¥":{"x_min":18.0625,"x_max":905.625,"ha":921,"o":"m 201 194 l 411 194 l 315 215 l 315 222 l 201 222 l 201 347 l 372 347 l 268 365 l 18 888 l 315 888 l 447 601 l 406 468 l 608 888 l 905 888 l 637 347 l 715 347 l 715 222 l 598 222 l 598 194 l 715 194 l 715 69 l 598 69 l 598 0 l 315 0 l 315 69 l 201 69 l 201 194 "},"Ĥ":{"x_min":41.671875,"x_max":929.234375,"ha":971,"o":"m 41 888 l 354 888 l 354 618 l 183 597 l 777 597 l 618 618 l 618 888 l 929 888 l 929 0 l 618 0 l 618 269 l 788 290 l 183 290 l 354 269 l 354 0 l 41 0 l 41 888 l 41 888 m 469 1020 l 430 944 l 251 944 l 330 1095 l 634 1095 l 709 944 l 529 944 l 490 1020 l 598 1040 l 370 1040 l 469 1020 "},"U":{"x_min":41.671875,"x_max":929.234375,"ha":972,"o":"m 188 270 l 786 270 l 638 291 l 638 888 l 929 888 l 929 0 l 41 0 l 41 888 l 333 888 l 333 291 l 188 270 l 188 270 "},"Ñ":{"x_min":41.671875,"x_max":929.234375,"ha":972,"o":"m 625 528 l 625 888 l 929 888 l 929 0 l 625 0 l 220 571 l 347 359 l 347 0 l 41 0 l 41 888 l 347 888 l 750 316 l 625 528 m 383 1020 l 491 1040 l 263 1040 l 362 1020 l 323 944 l 144 944 l 144 1095 l 531 1095 l 569 1019 l 473 1000 l 700 1000 l 591 1019 l 630 1095 l 811 1095 l 811 944 l 422 944 l 383 1020 "},"F":{"x_min":41.671875,"x_max":847.296875,"ha":889,"o":"m 333 0 l 41 0 l 41 887 l 847 887 l 847 611 l 354 611 l 333 763 l 333 569 l 777 569 l 777 319 l 333 319 l 333 0 l 333 0 "},"ĵ":{"x_min":41.671875,"x_max":632,"ha":667,"o":"m 298 277 l 41 277 l 41 0 l 625 0 l 625 888 l 172 888 l 172 611 l 298 611 l 319 743 l 319 159 l 298 277 m 293 1000 l 520 1000 l 412 1019 l 451 1095 l 632 1095 l 556 944 l 252 944 l 173 1095 l 352 1095 l 391 1019 l 293 1000 "},"ā":{"x_min":41.671875,"x_max":929.234375,"ha":972,"o":"m 347 597 l 347 444 l 187 423 l 784 423 l 625 444 l 625 597 l 784 618 l 187 618 l 347 597 m 929 887 l 929 0 l 625 0 l 625 152 l 770 180 l 187 180 l 347 152 l 347 0 l 41 0 l 41 887 l 929 887 m 250 1070 l 708 1070 l 708 945 l 250 945 l 250 1070 "},"Ĩ":{"x_min":-136.125,"x_max":531.984375,"ha":389,"o":"m 41 0 l 41 888 l 347 888 l 347 0 l 41 0 l 41 0 m 102 1020 l 211 1040 l -16 1040 l 81 1020 l 43 944 l -136 944 l -56 1095 l 251 1095 l 288 1019 l 193 1000 l 420 1000 l 312 1019 l 351 1095 l 531 1095 l 456 944 l 141 944 l 102 1020 "},"ă":{"x_min":41.671875,"x_max":929.234375,"ha":972,"o":"m 187 618 l 784 618 l 625 597 l 625 444 l 784 423 l 187 423 l 347 444 l 347 597 l 187 618 m 41 887 l 41 0 l 347 0 l 347 152 l 187 180 l 770 180 l 625 152 l 625 0 l 929 0 l 929 887 l 41 887 m 376 1000 l 604 1000 l 495 1019 l 534 1095 l 715 1095 l 640 944 l 336 944 l 256 1095 l 436 1095 l 475 1019 l 376 1000 "},"*":{"x_min":12.5,"x_max":547.265625,"ha":554,"o":"m 336 227 l 336 293 l 431 315 l 319 315 l 330 285 l 118 213 l 94 322 l 159 343 l 208 258 l 176 362 l 148 343 l 12 521 l 111 579 l 151 525 l 86 451 l 176 516 l 147 537 l 279 722 l 362 647 l 323 591 l 233 631 l 322 566 l 334 600 l 547 530 l 501 427 l 436 448 l 447 547 l 412 439 l 448 439 l 447 214 l 336 227 "},"†":{"x_min":68.0625,"x_max":526.4375,"ha":594,"o":"m 68 554 l 184 554 l 186 1112 l 408 1112 l 408 554 l 526 554 l 526 332 l 408 332 l 408 -195 l 184 -195 l 184 332 l 68 332 l 68 554 "},"Ќ":{"x_min":41.671875,"x_max":929.234375,"ha":953,"o":"m 623 443 l 929 0 l 570 0 l 444 190 l 312 0 l 41 0 l 41 888 l 347 888 l 347 592 l 263 433 l 570 888 l 929 888 l 623 443 m 479 1095 l 658 1095 l 579 944 l 394 944 l 479 1095 "},"∕":{"x_min":1.390625,"x_max":845.90625,"ha":849,"o":"m 1 0 l 583 888 l 845 888 l 265 0 l 1 0 "},"°":{"x_min":42,"x_max":319,"ha":361,"o":"m 319 636 l 42 636 l 42 888 l 319 888 l 319 636 m 139 811 l 139 712 l 88 692 l 272 692 l 222 712 l 222 811 l 271 832 l 89 832 l 139 811 "},"å":{"x_min":41.671875,"x_max":929.234375,"ha":972,"o":"m 783 618 l 186 618 l 345 597 l 345 444 l 186 423 l 783 423 l 623 444 l 623 597 l 783 618 m 929 888 l 929 0 l 623 0 l 623 152 l 783 180 l 200 180 l 345 152 l 345 0 l 41 0 l 41 888 l 929 888 m 623 902 l 345 902 l 345 1111 l 623 1111 l 623 902 m 440 1034 l 440 979 l 393 958 l 576 958 l 526 979 l 526 1034 l 576 1055 l 393 1055 l 440 1034 "},"0":{"x_min":41.671875,"x_max":930.625,"ha":972,"o":"m 191 618 l 354 597 l 354 291 l 188 270 l 784 270 l 618 291 l 618 597 l 784 618 l 191 618 m 930 0 l 41 0 l 41 888 l 930 888 l 930 0 "},"ō":{"x_min":41.671875,"x_max":929.234375,"ha":972,"o":"m 354 597 l 354 291 l 188 270 l 784 270 l 618 291 l 618 597 l 784 618 l 191 618 l 354 597 m 41 0 l 41 888 l 929 888 l 929 0 l 41 0 m 255 1070 l 713 1070 l 713 945 l 255 945 l 255 1070 "},"”":{"x_min":0,"x_max":375.03125,"ha":376,"o":"m 55 898 l 55 965 l 151 986 l 0 986 l 0 1111 l 166 1111 l 166 886 l 55 898 m 263 898 l 263 965 l 359 986 l 208 986 l 208 1111 l 375 1111 l 375 886 l 263 898 "},"ŵ":{"x_min":20.828125,"x_max":1034.8125,"ha":1057,"o":"m 637 0 l 534 147 l 429 0 l 180 0 l 20 888 l 312 888 l 395 500 l 323 356 l 451 556 l 616 556 l 751 356 l 675 500 l 743 888 l 1034 888 l 888 0 l 637 0 m 515 1020 l 476 944 l 297 944 l 376 1095 l 680 1095 l 755 944 l 575 944 l 536 1020 l 644 1040 l 416 1040 l 515 1020 "},"Ķ":{"x_min":41.671875,"x_max":929.234375,"ha":951,"o":"m 623 443 l 929 0 l 570 0 l 444 190 l 312 0 l 41 0 l 41 888 l 347 888 l 347 592 l 263 433 l 570 888 l 929 888 l 623 443 m 413 -240 l 413 -173 l 509 -152 l 359 -152 l 359 -27 l 525 -27 l 525 -252 l 413 -240 "},"ö":{"x_min":41.671875,"x_max":929.234375,"ha":972,"o":"m 354 597 l 354 291 l 188 270 l 784 270 l 618 291 l 618 597 l 784 618 l 191 618 l 354 597 m 41 0 l 41 888 l 929 888 l 929 0 l 41 0 m 180 1070 l 347 1070 l 347 945 l 180 945 l 180 1070 m 625 1070 l 791 1070 l 791 945 l 625 945 l 625 1070 "},"ǽ":{"x_min":41.671875,"x_max":1111.203125,"ha":1153,"o":"m 811 278 l 1111 278 l 1111 0 l 527 0 l 527 180 l 200 180 l 345 152 l 345 0 l 41 0 l 41 888 l 1111 888 l 1111 612 l 811 612 l 790 750 l 790 554 l 1041 554 l 1041 332 l 790 332 l 790 148 l 811 278 m 345 598 l 345 444 l 186 423 l 527 423 l 527 619 l 186 619 l 345 598 m 559 1095 l 738 1095 l 659 944 l 475 944 l 559 1095 "},"Ļ":{"x_min":41.671875,"x_max":861.1875,"ha":903,"o":"m 368 271 l 861 271 l 861 0 l 41 0 l 41 888 l 347 888 l 347 125 l 368 271 l 368 271 m 426 -238 l 426 -172 l 522 -151 l 372 -151 l 372 -26 l 537 -26 l 537 -251 l 426 -238 "},"⁳":{"x_min":42,"x_max":284,"ha":322,"o":"m 189 705 l 196 666 l 196 722 l 62 722 l 62 789 l 196 789 l 196 847 l 189 806 l 42 806 l 42 888 l 284 888 l 284 762 l 259 755 l 284 748 l 284 622 l 42 622 l 42 705 l 189 705 l 189 705 "},"Õ":{"x_min":41.671875,"x_max":929.234375,"ha":972,"o":"m 191 618 l 354 597 l 354 291 l 188 270 l 784 270 l 618 291 l 618 597 l 784 618 l 191 618 m 929 0 l 41 0 l 41 888 l 929 888 l 929 0 m 383 1020 l 491 1040 l 263 1040 l 362 1020 l 323 944 l 144 944 l 144 1095 l 531 1095 l 569 1019 l 473 1000 l 700 1000 l 591 1019 l 630 1095 l 811 1095 l 811 944 l 422 944 l 383 1020 "},"ć":{"x_min":41.671875,"x_max":855.625,"ha":897,"o":"m 333 764 l 333 138 l 354 270 l 855 270 l 855 0 l 41 0 l 41 888 l 855 888 l 855 618 l 354 618 l 333 764 l 333 764 m 419 1095 l 598 1095 l 519 944 l 334 944 l 419 1095 "},"þ":{"x_min":41.671875,"x_max":930.625,"ha":971,"o":"m 41 888 l 333 888 l 333 842 l 930 842 l 930 180 l 333 180 l 333 0 l 41 0 l 41 888 m 333 711 l 333 291 l 354 430 l 638 430 l 638 572 l 354 572 l 333 711 "},"]":{"x_min":0,"x_max":320.859375,"ha":361,"o":"m 0 13 l 76 13 l 97 -147 l 97 1048 l 76 879 l 0 879 l 0 1111 l 319 1111 l 320 -206 l 0 -206 l 0 13 "},"А":{"x_min":41.671875,"x_max":929.234375,"ha":972,"o":"m 347 597 l 347 444 l 187 423 l 784 423 l 625 444 l 625 597 l 784 618 l 187 618 l 347 597 m 929 887 l 929 0 l 625 0 l 625 152 l 770 180 l 187 180 l 347 152 l 347 0 l 41 0 l 41 887 l 929 887 "},"Ы":{"x_min":42,"x_max":1272,"ha":1314,"o":"m 354 269 l 615 269 l 639 269 l 639 471 l 615 471 l 354 471 l 334 609 l 334 130 l 354 269 m 931 721 l 931 0 l 42 0 l 42 888 l 334 888 l 334 721 l 931 721 m 986 0 l 986 888 l 1272 888 l 1272 0 l 986 0 "},"ẁ":{"x_min":20.828125,"x_max":1034.8125,"ha":1057,"o":"m 418 0 l 166 0 l 20 888 l 312 888 l 380 500 l 304 356 l 438 556 l 604 556 l 732 356 l 659 500 l 743 888 l 1034 888 l 875 0 l 626 0 l 520 147 l 418 0 l 418 0 m 626 944 l 441 944 l 362 1095 l 541 1095 l 626 944 "},"ĭ":{"x_min":-36.109375,"x_max":420.859375,"ha":389,"o":"m 41 0 l 41 888 l 347 888 l 347 0 l 41 0 l 41 0 m 33 998 l 350 998 l 240 1018 l 240 1094 l 420 1094 l 420 943 l -36 943 l -36 1094 l 130 1094 l 130 1018 l 33 998 "},"8":{"x_min":41.671875,"x_max":930.625,"ha":972,"o":"m 333 416 l 333 291 l 187 270 l 769 270 l 638 291 l 638 416 l 333 416 m 187 618 l 333 598 l 333 514 l 638 514 l 638 597 l 769 618 l 187 618 m 194 451 l 41 490 l 41 888 l 930 888 l 930 489 l 770 451 l 930 451 l 930 0 l 41 0 l 41 451 l 194 451 "},"R":{"x_min":41.671875,"x_max":929.234375,"ha":971,"o":"m 186 618 l 354 597 l 354 451 l 186 430 l 638 430 l 638 618 l 186 618 m 187 166 l 354 145 l 354 0 l 41 0 l 41 888 l 929 888 l 929 166 l 791 166 l 927 0 l 583 0 l 479 145 l 633 166 l 187 166 "},"ť":{"x_min":41.671875,"x_max":916.734375,"ha":958,"o":"m 333 0 l 333 749 l 311 611 l 41 611 l 41 888 l 916 888 l 916 611 l 644 611 l 623 751 l 623 0 l 333 0 l 333 0 m 365 1000 l 593 1000 l 484 1019 l 523 1095 l 704 1095 l 629 944 l 325 944 l 245 1095 l 425 1095 l 463 1019 l 365 1000 "},"Ľ":{"x_min":41.671875,"x_max":861.1875,"ha":903,"o":"m 368 271 l 861 271 l 861 0 l 41 0 l 41 888 l 347 888 l 347 125 l 368 271 l 368 271 m 470 673 l 470 740 l 566 760 l 416 760 l 416 886 l 581 886 l 581 660 l 470 673 "},"Ż":{"x_min":41.671875,"x_max":888.953125,"ha":929,"o":"m 597 743 l 416 618 l 41 618 l 41 887 l 888 887 l 888 625 l 319 131 l 526 277 l 888 277 l 888 0 l 41 0 l 41 277 l 597 743 l 597 743 m 400 1070 l 566 1070 l 566 945 l 400 945 l 400 1070 "},"o":{"x_min":41.671875,"x_max":929.234375,"ha":972,"o":"m 191 618 l 354 597 l 354 291 l 188 270 l 784 270 l 618 291 l 618 597 l 784 618 l 191 618 m 929 0 l 41 0 l 41 888 l 929 888 l 929 0 "},"5":{"x_min":41.671875,"x_max":916.734375,"ha":958,"o":"m 333 0 l 41 0 l 41 278 l 602 278 l 623 139 l 623 333 l 41 333 l 41 888 l 333 888 l 638 888 l 915 888 l 915 612 l 354 612 l 333 750 l 333 555 l 916 555 l 916 0 l 638 0 l 333 0 "},"Ѕ":{"x_min":41.671875,"x_max":916.734375,"ha":958,"o":"m 41 888 l 916 888 l 916 612 l 354 612 l 333 750 l 333 555 l 916 555 l 916 0 l 41 0 l 41 278 l 602 278 l 623 139 l 623 333 l 41 333 l 41 888 l 41 888 "},"ħ":{"x_min":41.671875,"x_max":929.234375,"ha":971,"o":"m 255 1069 l 713 1069 l 713 944 l 255 944 l 255 1069 m 41 888 l 354 888 l 354 618 l 183 597 l 777 597 l 618 618 l 618 888 l 929 888 l 929 0 l 618 0 l 618 269 l 788 290 l 183 290 l 354 269 l 354 0 l 41 0 l 41 888 l 41 888 "},"õ":{"x_min":41.671875,"x_max":929.234375,"ha":972,"o":"m 191 618 l 354 597 l 354 291 l 188 270 l 784 270 l 618 291 l 618 597 l 784 618 l 191 618 m 929 0 l 41 0 l 41 888 l 929 888 l 929 0 m 383 1020 l 491 1040 l 263 1040 l 362 1020 l 323 944 l 144 944 l 144 1095 l 531 1095 l 569 1019 l 473 1000 l 700 1000 l 591 1019 l 630 1095 l 811 1095 l 811 944 l 422 944 l 383 1020 "},",":{"x_min":41.671875,"x_max":206.96875,"ha":250,"o":"m 95 -87 l 95 -20 l 191 0 l 41 0 l 41 125 l 206 125 l 206 -100 l 95 -87 "},"d":{"x_min":41.671875,"x_max":930.625,"ha":972,"o":"m 354 270 l 638 270 l 638 618 l 354 618 l 333 757 l 333 145 l 354 270 l 354 270 m 930 0 l 41 0 l 41 888 l 930 888 l 930 0 l 930 0 "},"\"":{"x_min":0,"x_max":375,"ha":376,"o":"m 0 821 l 0 1111 l 168 1111 l 168 841 l 0 821 m 208 821 l 208 1111 l 375 1111 l 375 841 l 208 821 "},"˙":{"x_min":41,"x_max":929,"ha":971,"o":"m 401 1070 l 568 1070 l 568 945 l 401 945 l 401 1070 m 354 598 l 354 291 l 188 271 l 784 271 l 618 291 l 618 598 l 784 619 l 191 619 l 354 598 m 41 0 l 41 888 l 929 888 l 929 0 l 41 0 "},"ê":{"x_min":41.671875,"x_max":847.296875,"ha":888,"o":"m 434 1020 l 395 944 l 216 944 l 295 1095 l 600 1095 l 675 944 l 494 944 l 455 1020 l 563 1040 l 336 1040 l 434 1020 m 354 278 l 847 278 l 847 0 l 41 0 l 41 888 l 847 888 l 847 611 l 354 611 l 333 750 l 333 554 l 777 554 l 777 330 l 333 330 l 333 148 l 354 278 "},"„":{"x_min":41.671875,"x_max":416.703125,"ha":458,"o":"m 97 -86 l 97 -19 l 193 1 l 41 1 l 41 126 l 208 126 l 208 -98 l 97 -86 m 305 -86 l 305 -19 l 401 1 l 250 1 l 250 126 l 416 126 l 416 -98 l 305 -86 "},"ч":{"x_min":41.671875,"x_max":929.234375,"ha":986,"o":"m 41 888 l 352 888 l 352 508 l 181 487 l 777 487 l 618 508 l 618 888 l 929 888 l 929 0 l 618 0 l 618 159 l 788 180 l 181 180 l 41 180 l 41 888 l 41 888 "},"ľ":{"x_min":41.671875,"x_max":861.1875,"ha":903,"o":"m 368 271 l 861 271 l 861 0 l 41 0 l 41 888 l 347 888 l 347 125 l 368 271 l 368 271 m 470 673 l 470 740 l 566 760 l 416 760 l 416 886 l 581 886 l 581 660 l 470 673 "},"Â":{"x_min":41.671875,"x_max":929.234375,"ha":972,"o":"m 476 1020 l 437 944 l 258 944 l 337 1095 l 641 1095 l 716 944 l 536 944 l 497 1020 l 605 1040 l 377 1040 l 476 1020 m 783 618 l 186 618 l 345 597 l 345 444 l 186 423 l 783 423 l 623 444 l 623 597 l 783 618 m 929 888 l 929 0 l 623 0 l 623 152 l 783 180 l 200 180 l 345 152 l 345 0 l 41 0 l 41 888 l 929 888 "},"Į":{"x_min":41.671875,"x_max":347.25,"ha":389,"o":"m 41 0 l 41 888 l 347 888 l 347 0 l 41 0 l 41 0 m 291 -12 l 291 -79 l 195 -100 l 345 -100 l 345 -225 l 180 -225 l 180 0 l 291 -12 "},"ė":{"x_min":41.671875,"x_max":847.296875,"ha":888,"o":"m 361 1070 l 527 1070 l 527 945 l 361 945 l 361 1070 m 354 277 l 847 277 l 847 0 l 41 0 l 41 887 l 847 887 l 847 610 l 354 610 l 333 749 l 333 554 l 777 554 l 777 330 l 333 330 l 333 148 l 354 277 "},"Ţ":{"x_min":41.671875,"x_max":916.734375,"ha":958,"o":"m 333 0 l 333 749 l 311 611 l 41 611 l 41 888 l 916 888 l 916 611 l 644 611 l 623 751 l 623 0 l 333 0 l 333 0 m 451 -240 l 451 -173 l 547 -152 l 397 -152 l 397 -27 l 562 -27 l 562 -252 l 451 -240 "},"₎":{"x_min":13.890625,"x_max":109.734375,"ha":153,"o":"m 13 -44 l 36 -44 l 43 -93 l 43 265 l 36 215 l 13 215 l 13 284 l 109 284 l 109 -111 l 13 -111 l 13 -44 "},"₄":{"x_min":41.671875,"x_max":306.96875,"ha":347,"o":"m 41 266 l 134 266 l 134 152 l 83 146 l 262 146 l 213 152 l 213 266 l 306 266 l 306 1 l 213 1 l 213 48 l 265 55 l 83 55 l 41 55 l 41 266 l 41 266 "},"Í":{"x_min":41.671875,"x_max":358.359375,"ha":389,"o":"m 41 0 l 41 888 l 347 888 l 347 0 l 41 0 l 41 0 m 179 1095 l 358 1095 l 279 944 l 94 944 l 179 1095 "},"´":{"x_min":0,"x_max":167,"ha":168,"o":"m 0 888 l 0 1113 l 167 1113 l 167 988 l 15 988 l 111 967 l 111 900 l 0 888 "},"⁾":{"x_min":13.890625,"x_max":109.734375,"ha":153,"o":"m 13 655 l 36 655 l 43 607 l 43 965 l 36 915 l 13 915 l 13 984 l 109 984 l 109 588 l 13 588 l 13 655 "},"Ú":{"x_min":41.671875,"x_max":929.234375,"ha":971,"o":"m 188 270 l 786 270 l 638 291 l 638 888 l 929 888 l 929 0 l 41 0 l 41 888 l 333 888 l 333 291 l 188 270 m 479 1095 l 658 1095 l 579 944 l 394 944 l 479 1095 "},"Ŷ":{"x_min":16.671875,"x_max":904.234375,"ha":924,"o":"m 597 266 l 597 0 l 313 0 l 313 266 l 16 888 l 313 888 l 445 601 l 405 468 l 607 888 l 904 888 l 597 266 l 597 266 m 444 1020 l 405 944 l 226 944 l 305 1095 l 609 1095 l 684 944 l 504 944 l 465 1020 l 573 1040 l 345 1040 l 444 1020 "},"ŝ":{"x_min":41.671875,"x_max":916.734375,"ha":958,"o":"m 41 888 l 916 888 l 916 612 l 354 612 l 333 750 l 333 556 l 916 556 l 916 0 l 41 0 l 41 278 l 602 278 l 623 139 l 623 333 l 41 333 l 41 888 m 468 1020 l 429 944 l 250 944 l 329 1095 l 633 1095 l 708 944 l 527 944 l 488 1020 l 597 1040 l 369 1040 l 468 1020 "},"Ý":{"x_min":23.609375,"x_max":911.1875,"ha":931,"o":"m 604 266 l 604 0 l 320 0 l 320 266 l 23 888 l 320 888 l 452 601 l 412 468 l 613 888 l 911 888 l 604 266 m 461 1095 l 640 1095 l 561 944 l 376 944 l 461 1095 "},"Ĉ":{"x_min":41.671875,"x_max":855.625,"ha":897,"o":"m 333 764 l 333 138 l 354 270 l 855 270 l 855 0 l 41 0 l 41 888 l 855 888 l 855 618 l 354 618 l 333 764 l 333 764 m 444 1020 l 405 944 l 226 944 l 305 1095 l 609 1095 l 684 944 l 504 944 l 465 1020 l 573 1040 l 345 1040 l 444 1020 "},"И":{"x_min":41.671875,"x_max":929.234375,"ha":972,"o":"m 220 316 l 623 888 l 929 888 l 929 0 l 623 0 l 623 359 l 750 571 l 345 0 l 41 0 l 41 888 l 345 888 l 345 528 l 220 316 "},"₁":{"x_min":13.890625,"x_max":138.90625,"ha":181,"o":"m 47 173 l 95 180 l 40 180 l 13 180 l 47 266 l 138 266 l 138 1 l 47 1 l 47 173 "},"⁼":{"x_min":41.671875,"x_max":212.515625,"ha":251,"o":"m 41 887 l 212 887 l 212 816 l 41 816 l 41 887 m 41 779 l 212 779 l 212 708 l 41 708 l 41 779 "},"ą":{"x_min":41.671875,"x_max":929.234375,"ha":972,"o":"m 347 597 l 347 444 l 187 423 l 784 423 l 625 444 l 625 597 l 784 618 l 187 618 l 347 597 m 929 887 l 929 0 l 625 0 l 625 152 l 770 180 l 187 180 l 347 152 l 347 0 l 41 0 l 41 887 l 929 887 m 833 -41 l 833 -108 l 737 -129 l 887 -129 l 887 -254 l 722 -254 l 722 -29 l 833 -41 "},"Љ":{"x_min":21.109375,"x_max":1528,"ha":1568,"o":"m 1528 721 l 1528 0 l 618 0 l 617 589 l 754 610 l 423 610 l 550 589 l 348 0 l 21 0 l 353 888 l 931 888 l 931 721 l 1528 721 m 951 269 l 1236 269 l 1236 471 l 951 471 l 931 609 l 931 130 l 951 269 "},"р":{"x_min":41.671875,"x_max":930.625,"ha":971,"o":"m 333 757 l 333 277 l 354 416 l 615 416 l 638 416 l 638 618 l 615 618 l 354 618 l 333 757 l 333 757 m 333 166 l 333 0 l 41 0 l 41 888 l 930 888 l 930 166 l 333 166 l 333 166 "},"т":{"x_min":41.671875,"x_max":916.734375,"ha":958,"o":"m 333 0 l 333 749 l 311 611 l 41 611 l 41 888 l 916 888 l 916 611 l 644 611 l 623 751 l 623 0 l 333 0 l 333 0 "},"П":{"x_min":41.671875,"x_max":929.234375,"ha":972,"o":"m 188 617 l 333 596 l 333 0 l 41 0 l 41 888 l 929 888 l 929 0 l 638 0 l 638 596 l 786 617 l 188 617 l 188 617 "},"Ö":{"x_min":41.671875,"x_max":929.234375,"ha":971,"o":"m 354 597 l 354 291 l 188 270 l 784 270 l 618 291 l 618 597 l 784 618 l 191 618 l 354 597 m 41 0 l 41 888 l 929 888 l 929 0 l 41 0 m 180 1070 l 347 1070 l 347 945 l 180 945 l 180 1070 m 625 1070 l 791 1070 l 791 945 l 625 945 l 625 1070 "},"z":{"x_min":41.671875,"x_max":888.953125,"ha":929,"o":"m 597 743 l 416 618 l 41 618 l 41 887 l 888 887 l 888 625 l 319 131 l 526 277 l 888 277 l 888 0 l 41 0 l 41 277 l 597 743 l 597 743 "},"™":{"x_min":44.171875,"x_max":361,"ha":403,"o":"m 240 1058 l 259 1022 l 259 960 l 210 960 l 210 1111 l 262 1111 l 284 1073 l 309 1111 l 361 1111 l 361 960 l 312 960 l 312 1022 l 330 1058 l 301 1012 l 270 1012 l 240 1058 m 93 960 l 93 1087 l 90 1064 l 44 1064 l 44 1111 l 192 1111 l 192 1064 l 147 1064 l 144 1087 l 144 960 l 93 960 "},"Ř":{"x_min":41.671875,"x_max":929.234375,"ha":971,"o":"m 638 618 l 638 430 l 186 430 l 354 451 l 354 597 l 186 618 l 638 618 m 633 166 l 479 145 l 583 0 l 927 0 l 791 166 l 929 166 l 929 888 l 41 888 l 41 0 l 354 0 l 354 145 l 187 166 l 633 166 m 369 1000 l 597 1000 l 488 1019 l 527 1095 l 708 1095 l 633 944 l 329 944 l 250 1095 l 429 1095 l 468 1019 l 369 1000 "},"ã":{"x_min":42,"x_max":930,"ha":973,"o":"m 783 619 l 186 619 l 346 598 l 346 444 l 186 424 l 783 424 l 624 444 l 624 598 l 783 619 m 930 888 l 930 0 l 624 0 l 624 153 l 783 181 l 200 181 l 346 153 l 346 0 l 42 0 l 42 888 l 930 888 m 403 1020 l 511 1040 l 283 1040 l 382 1020 l 343 944 l 164 944 l 243 1096 l 552 1096 l 589 1019 l 493 1000 l 721 1000 l 613 1019 l 652 1096 l 832 1096 l 757 944 l 442 944 l 403 1020 "},"Ň":{"x_min":41.671875,"x_max":929.234375,"ha":972,"o":"m 625 528 l 625 888 l 929 888 l 929 0 l 625 0 l 220 571 l 347 359 l 347 0 l 41 0 l 41 888 l 347 888 l 750 316 l 625 528 m 376 1000 l 604 1000 l 495 1019 l 534 1095 l 715 1095 l 640 944 l 336 944 l 256 1095 l 436 1095 l 475 1019 l 376 1000 "},"æ":{"x_min":41.671875,"x_max":1111.203125,"ha":1153,"o":"m 811 278 l 1111 278 l 1111 0 l 527 0 l 527 180 l 200 180 l 345 152 l 345 0 l 41 0 l 41 888 l 1111 888 l 1111 612 l 811 612 l 790 750 l 790 554 l 1041 554 l 1041 332 l 790 332 l 790 148 l 811 278 m 345 598 l 345 444 l 186 423 l 527 423 l 527 619 l 186 619 l 345 598 "},"ĩ":{"x_min":-136.125,"x_max":531.984375,"ha":389,"o":"m 41 0 l 41 888 l 347 888 l 347 0 l 41 0 l 41 0 m 102 1020 l 211 1040 l -16 1040 l 81 1020 l 43 944 l -136 944 l -56 1095 l 251 1095 l 288 1019 l 193 1000 l 420 1000 l 312 1019 l 351 1095 l 531 1095 l 456 944 l 141 944 l 102 1020 "},"₊":{"x_min":40,"x_max":211,"ha":250,"o":"m 86 0 l 86 44 l 136 50 l 40 50 l 40 133 l 86 133 l 86 179 l 165 179 l 165 139 l 115 133 l 211 133 l 211 50 l 165 50 l 165 0 l 86 0 "},"É":{"x_min":41.671875,"x_max":847.296875,"ha":889,"o":"m 415 1095 l 594 1095 l 515 944 l 330 944 l 415 1095 m 354 277 l 847 277 l 847 0 l 41 0 l 41 887 l 847 887 l 847 610 l 354 610 l 333 749 l 333 554 l 777 554 l 777 330 l 333 330 l 333 148 l 354 277 "},"и":{"x_min":41.671875,"x_max":929.234375,"ha":972,"o":"m 220 316 l 623 888 l 929 888 l 929 0 l 623 0 l 623 359 l 750 571 l 345 0 l 41 0 l 41 888 l 345 888 l 345 528 l 220 316 "},"ŀ":{"x_min":41.671875,"x_max":861.1875,"ha":903,"o":"m 368 271 l 861 271 l 861 0 l 41 0 l 41 888 l 347 888 l 347 125 l 368 271 l 368 271 m 538 476 l 705 476 l 705 601 l 538 601 l 538 476 "},"~":{"x_min":41.671875,"x_max":708.390625,"ha":751,"o":"m 280 1020 l 388 1040 l 161 1040 l 259 1020 l 220 944 l 41 944 l 41 1095 l 429 1095 l 466 1019 l 370 1000 l 597 1000 l 488 1019 l 527 1095 l 708 1095 l 708 944 l 319 944 l 280 1020 "},"Ċ":{"x_min":41.671875,"x_max":855.625,"ha":897,"o":"m 365 1069 l 531 1069 l 531 944 l 365 944 l 365 1069 m 333 764 l 333 138 l 354 270 l 855 270 l 855 0 l 41 0 l 41 888 l 855 888 l 855 618 l 354 618 l 333 764 l 333 764 "},"³":{"x_min":42,"x_max":284,"ha":322,"o":"m 189 705 l 196 666 l 196 722 l 62 722 l 62 789 l 196 789 l 196 847 l 189 806 l 42 806 l 42 888 l 284 888 l 284 762 l 259 755 l 284 748 l 284 622 l 42 622 l 42 705 l 189 705 l 189 705 "},"¡":{"x_min":41.671875,"x_max":325.03125,"ha":361,"o":"m 323 720 l 323 0 l 41 0 l 41 720 l 323 720 m 325 887 l 325 762 l 41 762 l 41 887 l 325 887 "},"ẅ":{"x_min":20.828125,"x_max":1034.8125,"ha":1057,"o":"m 637 0 l 534 147 l 429 0 l 180 0 l 20 888 l 312 888 l 395 500 l 323 356 l 451 556 l 616 556 l 751 356 l 675 500 l 743 888 l 1034 888 l 888 0 l 637 0 m 222 1070 l 388 1070 l 388 945 l 222 945 l 222 1070 m 666 1070 l 833 1070 l 833 945 l 666 945 l 666 1070 "},"[":{"x_min":40.28125,"x_max":361.140625,"ha":363,"o":"m 361 -206 l 40 -206 l 41 1111 l 361 1111 l 361 879 l 284 879 l 263 1048 l 263 -147 l 284 13 l 361 13 l 361 -206 "},"К":{"x_min":41.671875,"x_max":929.234375,"ha":953,"o":"m 623 443 l 929 0 l 570 0 l 444 190 l 312 0 l 41 0 l 41 888 l 347 888 l 347 592 l 263 433 l 570 888 l 929 888 l 623 443 "},"%":{"x_min":19.453125,"x_max":797.28125,"ha":821,"o":"m 506 0 l 506 221 l 797 221 l 797 0 l 506 0 m 372 0 l 84 0 l 443 888 l 732 888 l 372 0 m 19 667 l 19 888 l 311 888 l 311 667 l 19 667 "},"P":{"x_min":41.671875,"x_max":930.625,"ha":971,"o":"m 333 757 l 333 277 l 354 416 l 615 416 l 638 416 l 638 618 l 615 618 l 354 618 l 333 757 l 333 757 m 333 166 l 333 0 l 41 0 l 41 888 l 930 888 l 930 166 l 333 166 l 333 166 "},"_":{"x_min":18.0625,"x_max":923.6875,"ha":945,"o":"m 18 0 l 923 0 l 923 -152 l 18 -152 l 18 0 "},"Ŕ":{"x_min":41.671875,"x_max":929.234375,"ha":971,"o":"m 186 618 l 354 597 l 354 451 l 186 430 l 638 430 l 638 618 l 186 618 m 187 166 l 354 145 l 354 0 l 41 0 l 41 888 l 929 888 l 929 166 l 791 166 l 927 0 l 583 0 l 479 145 l 633 166 l 187 166 m 455 1095 l 634 1095 l 555 944 l 370 944 l 455 1095 "},"ñ":{"x_min":41.671875,"x_max":929.234375,"ha":972,"o":"m 625 528 l 625 888 l 929 888 l 929 0 l 625 0 l 220 571 l 347 359 l 347 0 l 41 0 l 41 888 l 347 888 l 750 316 l 625 528 m 383 1020 l 491 1040 l 263 1040 l 362 1020 l 323 944 l 144 944 l 144 1095 l 531 1095 l 569 1019 l 473 1000 l 700 1000 l 591 1019 l 630 1095 l 811 1095 l 811 944 l 422 944 l 383 1020 "},"‚":{"x_min":41.671875,"x_max":208.34375,"ha":250,"o":"m 97 -86 l 97 -19 l 193 1 l 41 1 l 41 126 l 208 126 l 208 -98 l 97 -86 "},"⅞":{"x_min":37.5,"x_max":308.359375,"ha":347,"o":"m 37 416 l 308 416 l 308 483 l 37 483 l 37 416 m 220 234 l 220 197 l 259 190 l 84 190 l 129 197 l 129 234 l 220 234 m 259 294 l 220 288 l 220 263 l 129 263 l 129 288 l 84 294 l 259 294 m 41 244 l 41 109 l 308 109 l 308 244 l 259 244 l 308 255 l 308 375 l 41 375 l 41 256 l 87 244 l 41 244 m 211 750 l 156 712 l 44 712 l 44 793 l 298 793 l 298 715 l 191 613 l 191 527 l 100 527 l 100 648 l 211 750 "},"Æ":{"x_min":41.671875,"x_max":1111.203125,"ha":1153,"o":"m 811 278 l 1111 278 l 1111 0 l 527 0 l 527 180 l 200 180 l 345 152 l 345 0 l 41 0 l 41 888 l 1111 888 l 1111 612 l 811 612 l 790 750 l 790 569 l 1041 569 l 1041 319 l 790 319 l 790 148 l 811 278 m 345 598 l 345 444 l 186 423 l 527 423 l 527 619 l 186 619 l 345 598 "},"₣":{"x_min":0,"x_max":847.296875,"ha":889,"o":"m 0 247 l 191 247 l 41 266 l 41 887 l 847 887 l 847 611 l 354 611 l 333 763 l 333 569 l 777 569 l 777 319 l 333 319 l 333 247 l 376 247 l 376 123 l 333 123 l 333 0 l 41 0 l 41 123 l 0 123 l 0 247 "},"ğ":{"x_min":41.671875,"x_max":929.234375,"ha":972,"o":"m 929 618 l 929 887 l 41 887 l 41 0 l 929 0 l 929 563 l 479 563 l 479 313 l 638 313 l 638 270 l 354 270 l 333 138 l 333 763 l 354 618 l 929 618 m 370 1000 l 598 1000 l 490 1019 l 529 1095 l 709 1095 l 634 944 l 330 944 l 251 1095 l 430 1095 l 469 1019 l 370 1000 "},"ѓ":{"x_min":41.671875,"x_max":861.1875,"ha":903,"o":"m 368 617 l 347 762 l 347 0 l 41 0 l 41 888 l 861 888 l 861 617 l 368 617 m 415 1095 l 594 1095 l 515 944 l 330 944 l 415 1095 "},"ы":{"x_min":42,"x_max":1272,"ha":1314,"o":"m 334 130 l 354 269 l 615 269 l 639 269 l 639 471 l 615 471 l 354 471 l 334 609 l 334 130 m 334 721 l 931 721 l 931 0 l 42 0 l 42 888 l 334 888 l 334 721 m 986 0 l 986 888 l 1272 888 l 1272 0 l 986 0 "},"Ū":{"x_min":41.671875,"x_max":929.234375,"ha":971,"o":"m 188 270 l 786 270 l 638 291 l 638 888 l 929 888 l 929 0 l 41 0 l 41 888 l 333 888 l 333 291 l 188 270 m 255 1070 l 713 1070 l 713 945 l 255 945 l 255 1070 "},"ª":{"x_min":41.671875,"x_max":306.96875,"ha":347,"o":"m 133 801 l 133 755 l 84 748 l 263 748 l 216 755 l 216 801 l 263 807 l 84 807 l 133 801 m 306 887 l 306 622 l 216 622 l 216 668 l 259 676 l 84 676 l 133 668 l 133 622 l 41 622 l 41 887 l 306 887 "},"ї":{"x_min":0,"x_max":388.921875,"ha":389,"o":"m 41 0 l 41 888 l 347 888 l 347 0 l 41 0 l 41 0 m 0 1070 l 166 1070 l 166 945 l 0 945 l 0 1070 m 222 1070 l 388 1070 l 388 945 l 222 945 l 222 1070 "},"Œ":{"x_min":41.671875,"x_max":1111.203125,"ha":1153,"o":"m 808 277 l 1111 277 l 1111 0 l 41 0 l 41 887 l 1111 887 l 1111 611 l 808 611 l 787 750 l 787 569 l 1041 569 l 1041 319 l 787 319 l 787 148 l 808 277 m 354 597 l 354 291 l 188 270 l 526 270 l 526 618 l 191 618 l 354 597 "},"Ą":{"x_min":41.671875,"x_max":929.234375,"ha":972,"o":"m 347 597 l 347 444 l 187 423 l 784 423 l 625 444 l 625 597 l 784 618 l 187 618 l 347 597 m 929 887 l 929 0 l 625 0 l 625 152 l 770 180 l 187 180 l 347 152 l 347 0 l 41 0 l 41 887 l 929 887 m 833 -41 l 833 -108 l 737 -129 l 887 -129 l 887 -254 l 722 -254 l 722 -29 l 833 -41 "},"T":{"x_min":41.671875,"x_max":916.734375,"ha":958,"o":"m 333 0 l 333 749 l 311 611 l 41 611 l 41 888 l 916 888 l 916 611 l 644 611 l 623 751 l 623 0 l 333 0 l 333 0 "},"Њ":{"x_min":41.671875,"x_max":1526.515625,"ha":1571,"o":"m 41 888 l 354 888 l 354 618 l 183 597 l 777 597 l 618 618 l 618 888 l 929 888 l 929 721 l 1526 721 l 1526 0 l 618 0 l 618 269 l 788 290 l 183 290 l 354 269 l 354 0 l 41 0 l 41 888 m 950 269 l 1234 269 l 1234 471 l 950 471 l 929 610 l 929 130 l 950 269 "},"š":{"x_min":41.671875,"x_max":916.734375,"ha":958,"o":"m 41 888 l 916 888 l 916 612 l 354 612 l 333 750 l 333 556 l 916 556 l 916 0 l 41 0 l 41 278 l 602 278 l 623 139 l 623 333 l 41 333 l 41 888 m 369 1000 l 597 1000 l 488 1019 l 527 1095 l 708 1095 l 633 944 l 329 944 l 250 1095 l 429 1095 l 468 1019 l 369 1000 "},"є":{"x_min":41.671875,"x_max":847.296875,"ha":888,"o":"m 354 277 l 847 277 l 847 0 l 41 0 l 41 887 l 847 887 l 847 610 l 354 610 l 333 749 l 333 554 l 777 554 l 777 330 l 333 330 l 333 148 l 354 277 l 354 277 "},"Þ":{"x_min":41.671875,"x_max":930.625,"ha":972,"o":"m 41 888 l 333 888 l 333 842 l 930 842 l 930 180 l 333 180 l 333 0 l 41 0 l 41 888 m 333 711 l 333 291 l 354 430 l 638 430 l 638 572 l 354 572 l 333 711 "},"j":{"x_min":41.671875,"x_max":625.046875,"ha":667,"o":"m 319 159 l 319 743 l 298 611 l 172 611 l 172 888 l 625 888 l 625 0 l 41 0 l 41 277 l 298 277 l 319 159 "},"1":{"x_min":20.828125,"x_max":437.53125,"ha":479,"o":"m 131 573 l 295 597 l 111 597 l 20 597 l 131 888 l 437 888 l 437 0 l 131 0 l 131 573 "},"›":{"x_min":18.0625,"x_max":454.203125,"ha":457,"o":"m 18 708 l 281 708 l 454 444 l 281 181 l 18 181 l 191 444 l 18 708 "},"<":{"x_min":19.453125,"x_max":455.59375,"ha":472,"o":"m 281 444 l 455 181 l 191 181 l 19 444 l 191 708 l 455 708 l 281 444 "},"Ц":{"x_min":41.671875,"x_max":1044.53125,"ha":972,"o":"m 188 270 l 786 270 l 638 291 l 638 887 l 929 887 l 929 0 l 41 0 l 41 887 l 333 887 l 333 291 l 188 270 m 615 -20 l 712 -146 l 1044 -146 l 929 0 l 836 0 l 615 -20 "},"t":{"x_min":41.671875,"x_max":916.734375,"ha":958,"o":"m 333 0 l 333 749 l 311 611 l 41 611 l 41 888 l 916 888 l 916 611 l 644 611 l 623 751 l 623 0 l 333 0 l 333 0 "},"ù":{"x_min":41.671875,"x_max":929.234375,"ha":971,"o":"m 577 944 l 393 944 l 313 1095 l 493 1095 l 577 944 m 188 270 l 786 270 l 638 291 l 638 888 l 929 888 l 929 0 l 41 0 l 41 888 l 333 888 l 333 291 l 188 270 "},"Ф":{"x_min":42,"x_max":1482,"ha":1529,"o":"m 915 170 l 915 0 l 609 0 l 609 167 l 42 167 l 42 889 l 334 889 l 1482 889 l 1482 170 l 915 170 m 938 420 l 1190 420 l 1190 618 l 938 618 l 915 777 l 914 279 l 938 420 m 334 618 l 334 420 l 586 420 l 609 288 l 609 768 l 586 618 l 334 618 "},"ĉ":{"x_min":41.671875,"x_max":855.625,"ha":897,"o":"m 333 764 l 333 138 l 354 270 l 855 270 l 855 0 l 41 0 l 41 888 l 855 888 l 855 618 l 354 618 l 333 764 l 333 764 m 444 1020 l 405 944 l 226 944 l 305 1095 l 609 1095 l 684 944 l 504 944 l 465 1020 l 573 1040 l 345 1040 l 444 1020 "},"ï":{"x_min":41.671875,"x_max":358.359375,"ha":389,"o":"m 41 0 l 41 888 l 347 888 l 347 0 l 41 0 l 41 0 m 179 1095 l 358 1095 l 279 944 l 94 944 l 179 1095 "},"ī":{"x_min":-38.890625,"x_max":419.484375,"ha":389,"o":"m 41 0 l 41 888 l 347 888 l 347 0 l 41 0 l 41 0 m 80 1000 l 308 1000 l 200 1019 l 238 1095 l 419 1095 l 344 944 l 40 944 l -38 1095 l 140 1095 l 179 1019 l 80 1000 "},"Ò":{"x_min":41.671875,"x_max":929.234375,"ha":972,"o":"m 572 944 l 387 944 l 308 1095 l 487 1095 l 572 944 m 191 618 l 784 618 l 618 597 l 618 291 l 784 270 l 188 270 l 354 291 l 354 597 l 191 618 m 929 0 l 929 888 l 41 888 l 41 0 l 929 0 "},"О":{"x_min":41.671875,"x_max":929.234375,"ha":972,"o":"m 191 618 l 354 597 l 354 291 l 188 270 l 784 270 l 618 291 l 618 597 l 784 618 l 191 618 m 929 0 l 41 0 l 41 888 l 929 888 l 929 0 "},"Ď":{"x_min":41.671875,"x_max":930.625,"ha":972,"o":"m 354 270 l 638 270 l 638 618 l 354 618 l 333 757 l 333 145 l 354 270 l 354 270 m 930 0 l 41 0 l 41 888 l 930 888 l 930 0 l 930 0 m 376 1000 l 604 1000 l 495 1019 l 534 1095 l 715 1095 l 640 944 l 336 944 l 256 1095 l 436 1095 l 475 1019 l 376 1000 "},"&":{"x_min":42,"x_max":916.40625,"ha":958,"o":"m 354 278 l 916 278 l 916 0 l 662 0 l 640 70 l 640 -97 l 334 -97 l 334 0 l 42 0 l 42 421 l 125 445 l 42 467 l 42 888 l 334 888 l 333 986 l 640 986 l 640 819 l 660 888 l 916 888 l 916 612 l 354 612 l 334 750 l 333 569 l 777 569 l 777 319 l 334 319 l 333 148 l 354 278 l 354 278 "},"˝":{"x_min":0,"x_max":375,"ha":376,"o":"m 0 820 l 0 1110 l 168 1110 l 168 840 l 0 820 m 208 820 l 208 1110 l 375 1110 l 375 840 l 208 820 "},"I":{"x_min":41.671875,"x_max":347.25,"ha":389,"o":"m 41 0 l 41 888 l 347 888 l 347 0 l 41 0 l 41 0 "},"G":{"x_min":41.671875,"x_max":929.234375,"ha":972,"o":"m 354 618 l 333 763 l 333 138 l 354 270 l 638 270 l 638 313 l 479 313 l 479 563 l 929 563 l 929 0 l 41 0 l 41 887 l 929 887 l 929 618 l 354 618 "},"`":{"x_min":0,"x_max":167,"ha":168,"o":"m 55 900 l 55 967 l 151 988 l 0 988 l 0 1113 l 167 1113 l 167 888 l 55 900 "},"₉":{"x_min":41.671875,"x_max":308.359375,"ha":347,"o":"m 220 226 l 213 184 l 136 184 l 129 184 l 129 125 l 136 125 l 213 125 l 220 83 l 220 226 m 220 50 l 41 50 l 41 265 l 308 265 l 308 0 l 220 0 l 220 50 "},"·":{"x_min":0,"x_max":0,"ha":1157},"ŏ":{"x_min":41.671875,"x_max":929.234375,"ha":972,"o":"m 191 618 l 784 618 l 618 597 l 618 291 l 784 270 l 188 270 l 354 291 l 354 597 l 191 618 m 929 0 l 929 888 l 41 888 l 41 0 l 929 0 m 333 998 l 650 998 l 540 1018 l 540 1094 l 720 1094 l 720 943 l 263 943 l 263 1094 l 430 1094 l 430 1018 l 333 998 "},"¿":{"x_min":41.671875,"x_max":619.5,"ha":653,"o":"m 619 720 l 619 361 l 358 361 l 334 501 l 334 109 l 358 269 l 619 269 l 619 0 l 41 0 l 41 611 l 336 611 l 336 720 l 619 720 m 619 887 l 619 762 l 336 762 l 336 887 l 619 887 "},"ý":{"x_min":23.609375,"x_max":911.1875,"ha":931,"o":"m 604 266 l 604 0 l 320 0 l 320 266 l 23 888 l 320 888 l 452 601 l 412 468 l 613 888 l 911 888 l 604 266 m 461 1095 l 640 1095 l 561 944 l 376 944 l 461 1095 "},"Ђ":{"x_min":19.453125,"x_max":948.6875,"ha":993,"o":"m 19 888 l 408 888 l 408 792 l 372 792 l 372 707 l 948 707 l 948 0 l 637 0 l 637 379 l 808 400 l 212 400 l 372 379 l 372 0 l 61 0 l 61 769 l 220 792 l 47 792 l 19 792 l 19 888 "},"ſ":{"x_min":41.671875,"x_max":847.296875,"ha":888,"o":"m 333 0 l 41 0 l 41 887 l 847 887 l 847 611 l 354 611 l 333 763 l 333 569 l 777 569 l 777 319 l 333 319 l 333 0 l 333 0 "},"º":{"x_min":41.671875,"x_max":305.578125,"ha":347,"o":"m 86 807 l 134 801 l 134 709 l 86 702 l 261 702 l 211 709 l 211 801 l 261 807 l 86 807 m 305 622 l 41 622 l 41 888 l 305 888 l 305 622 "},"●":{"x_min":12.5,"x_max":547.265625,"ha":561,"o":"m 336 227 l 336 293 l 431 315 l 319 315 l 330 285 l 118 213 l 94 322 l 159 343 l 208 258 l 176 362 l 148 343 l 12 521 l 111 579 l 151 525 l 86 451 l 176 516 l 147 537 l 279 722 l 362 647 l 323 591 l 233 631 l 322 566 l 334 600 l 547 530 l 501 427 l 436 448 l 447 547 l 412 439 l 448 439 l 447 214 l 336 227 "},"ź":{"x_min":41.671875,"x_max":888.953125,"ha":929,"o":"m 597 743 l 416 618 l 41 618 l 41 887 l 888 887 l 888 625 l 319 131 l 526 277 l 888 277 l 888 0 l 41 0 l 41 277 l 597 743 l 597 743 m 461 1095 l 640 1095 l 561 944 l 376 944 l 461 1095 "},"ű":{"x_min":41.671875,"x_max":929.234375,"ha":972,"o":"m 188 270 l 786 270 l 638 291 l 638 888 l 929 888 l 929 0 l 41 0 l 41 888 l 333 888 l 333 291 l 188 270 l 188 270 m 329 1095 l 508 1095 l 429 944 l 244 944 l 329 1095 m 598 1095 l 777 1095 l 698 944 l 513 944 l 598 1095 "},"я":{"x_min":41.671875,"x_max":929.234375,"ha":971,"o":"m 181 618 l 350 597 l 350 451 l 181 430 l 626 430 l 626 618 l 181 618 m 337 166 l 491 145 l 387 0 l 43 0 l 179 166 l 41 166 l 41 888 l 929 888 l 929 0 l 616 0 l 616 145 l 783 166 l 337 166 "},"Ё":{"x_min":41.671875,"x_max":847.296875,"ha":888,"o":"m 137 1070 l 304 1070 l 304 945 l 137 945 l 137 1070 m 581 1070 l 748 1070 l 748 945 l 581 945 l 581 1070 m 354 278 l 847 278 l 847 0 l 41 0 l 41 888 l 847 888 l 847 611 l 354 611 l 333 750 l 333 554 l 777 554 l 777 330 l 333 330 l 333 148 l 354 278 "},"₃":{"x_min":42,"x_max":284,"ha":322,"o":"m 189 83 l 196 44 l 196 100 l 62 100 l 62 167 l 196 167 l 196 224 l 189 183 l 42 183 l 42 265 l 284 265 l 284 140 l 259 133 l 284 126 l 284 0 l 42 0 l 42 83 l 189 83 l 189 83 "},"Ǽ":{"x_min":41.671875,"x_max":1111.203125,"ha":1153,"o":"m 811 278 l 1111 278 l 1111 0 l 527 0 l 527 180 l 200 180 l 345 152 l 345 0 l 41 0 l 41 888 l 1111 888 l 1111 612 l 811 612 l 790 750 l 790 554 l 1041 554 l 1041 332 l 790 332 l 790 148 l 811 278 m 345 598 l 345 444 l 186 423 l 527 423 l 527 619 l 186 619 l 345 598 m 559 1095 l 738 1095 l 659 944 l 475 944 l 559 1095 "},"ń":{"x_min":41.671875,"x_max":929.234375,"ha":972,"o":"m 625 528 l 625 888 l 929 888 l 929 0 l 625 0 l 220 571 l 347 359 l 347 0 l 41 0 l 41 888 l 347 888 l 750 316 l 625 528 m 479 1095 l 658 1095 l 579 944 l 394 944 l 479 1095 "},"Ș":{"x_min":41.671875,"x_max":916.734375,"ha":958,"o":"m 41 888 l 916 888 l 916 612 l 354 612 l 333 750 l 333 555 l 916 555 l 916 0 l 41 0 l 41 278 l 602 278 l 623 139 l 623 333 l 41 333 l 41 888 l 41 888 m 456 -240 l 456 -173 l 552 -152 l 402 -152 l 402 -27 l 568 -27 l 568 -252 l 456 -240 "},";":{"x_min":41.671875,"x_max":208.34375,"ha":250,"o":"m 41 722 l 208 722 l 208 597 l 41 597 l 41 722 m 95 79 l 95 145 l 191 166 l 41 166 l 41 291 l 206 291 l 206 66 l 95 79 "},"Г":{"x_min":41.671875,"x_max":861.1875,"ha":903,"o":"m 368 617 l 347 762 l 347 0 l 41 0 l 41 888 l 861 888 l 861 617 l 368 617 l 368 617 "},"Ġ":{"x_min":41.671875,"x_max":929.234375,"ha":972,"o":"m 354 618 l 333 763 l 333 138 l 354 270 l 638 270 l 638 313 l 479 313 l 479 563 l 929 563 l 929 0 l 41 0 l 41 887 l 929 887 l 929 618 l 354 618 m 401 1070 l 568 1070 l 568 945 l 401 945 l 401 1070 "},"6":{"x_min":41.671875,"x_max":930.625,"ha":971,"o":"m 333 130 l 354 269 l 615 269 l 638 269 l 638 471 l 615 471 l 354 471 l 333 610 l 333 130 m 333 721 l 930 721 l 930 0 l 41 0 l 41 888 l 333 888 l 333 721 "},"Ь":{"x_min":41.671875,"x_max":930.625,"ha":971,"o":"m 333 130 l 354 269 l 615 269 l 638 269 l 638 471 l 615 471 l 354 471 l 333 610 l 333 130 m 333 721 l 930 721 l 930 0 l 41 0 l 41 888 l 333 888 l 333 721 "},"n":{"x_min":41.671875,"x_max":929.234375,"ha":972,"o":"m 625 528 l 625 888 l 929 888 l 929 0 l 625 0 l 220 571 l 347 359 l 347 0 l 41 0 l 41 888 l 347 888 l 750 316 l 625 528 "},"ģ":{"x_min":41.671875,"x_max":929.234375,"ha":974,"o":"m 354 618 l 333 763 l 333 138 l 354 270 l 638 270 l 638 313 l 479 313 l 479 563 l 929 563 l 929 0 l 41 0 l 41 887 l 929 887 l 929 618 l 354 618 m 470 -238 l 470 -172 l 566 -151 l 416 -151 l 416 -26 l 581 -26 l 581 -251 l 470 -238 "},"¤":{"x_min":42,"x_max":605,"ha":647,"o":"m 138 554 l 513 554 l 408 541 l 408 345 l 513 332 l 135 332 l 241 345 l 241 541 l 138 554 l 138 554 m 605 161 l 605 726 l 42 726 l 42 161 l 605 161 l 605 161 m 414 748 l 414 886 l 605 886 l 605 726 l 414 748 m 234 748 l 234 886 l 42 886 l 42 726 l 234 748 m 414 137 l 414 0 l 605 0 l 605 161 l 414 137 m 234 137 l 234 0 l 42 0 l 42 161 l 234 137 "},"Ĝ":{"x_min":41.671875,"x_max":929.234375,"ha":972,"o":"m 354 618 l 333 763 l 333 138 l 354 270 l 638 270 l 638 313 l 479 313 l 479 563 l 929 563 l 929 0 l 41 0 l 41 887 l 929 887 l 929 618 l 354 618 m 469 1020 l 430 944 l 251 944 l 330 1095 l 634 1095 l 709 944 l 529 944 l 490 1020 l 598 1040 l 370 1040 l 469 1020 "},"p":{"x_min":41.671875,"x_max":930.625,"ha":971,"o":"m 333 757 l 333 277 l 354 416 l 615 416 l 638 416 l 638 618 l 615 618 l 354 618 l 333 757 l 333 757 m 333 166 l 333 0 l 41 0 l 41 888 l 930 888 l 930 166 l 333 166 l 333 166 "},"‡":{"x_min":12.5,"x_max":581.984375,"ha":594,"o":"m 12 736 l 184 736 l 186 1112 l 408 1112 l 408 736 l 581 736 l 581 500 l 408 500 l 408 375 l 581 375 l 581 138 l 408 138 l 408 -195 l 184 -195 l 184 138 l 12 138 l 12 375 l 184 375 l 184 500 l 12 500 l 12 736 "},"ň":{"x_min":41.671875,"x_max":929.234375,"ha":972,"o":"m 625 528 l 625 888 l 929 888 l 929 0 l 625 0 l 220 571 l 347 359 l 347 0 l 41 0 l 41 888 l 347 888 l 750 316 l 625 528 m 376 1000 l 604 1000 l 495 1019 l 534 1095 l 715 1095 l 640 944 l 336 944 l 256 1095 l 436 1095 l 475 1019 l 376 1000 "},"⁴":{"x_min":41.671875,"x_max":306.96875,"ha":347,"o":"m 41 888 l 134 888 l 134 774 l 83 768 l 262 768 l 213 774 l 213 888 l 306 888 l 306 622 l 213 622 l 213 669 l 265 676 l 83 676 l 41 676 l 41 888 l 41 888 "},"Ю":{"x_min":42,"x_max":1269,"ha":1298,"o":"m 382 0 l 382 290 l 157 290 l 328 269 l 328 0 l 42 0 l 42 888 l 328 888 l 328 619 l 157 597 l 382 597 l 382 888 l 1269 888 l 1269 0 l 382 0 m 694 597 l 694 291 l 529 270 l 1124 270 l 958 291 l 958 597 l 1124 619 l 531 619 l 694 597 "},"ę":{"x_min":41.671875,"x_max":847.296875,"ha":889,"o":"m 750 -12 l 750 -79 l 654 -100 l 804 -100 l 804 -225 l 638 -225 l 638 0 l 750 -12 m 354 278 l 847 278 l 847 0 l 41 0 l 41 888 l 847 888 l 847 611 l 354 611 l 333 750 l 333 554 l 777 554 l 777 330 l 333 330 l 333 148 l 354 278 "},"S":{"x_min":41.671875,"x_max":916.734375,"ha":958,"o":"m 41 888 l 916 888 l 916 612 l 354 612 l 333 750 l 333 555 l 916 555 l 916 0 l 41 0 l 41 278 l 602 278 l 623 139 l 623 333 l 41 333 l 41 888 l 41 888 "},"/":{"x_min":0,"x_max":844.515625,"ha":846,"o":"m 0 0 l 581 888 l 844 888 l 263 0 l 0 0 "},"į":{"x_min":41.671875,"x_max":347.25,"ha":389,"o":"m 41 0 l 41 888 l 347 888 l 347 0 l 41 0 l 41 0 m 291 -12 l 291 -79 l 195 -100 l 345 -100 l 345 -225 l 180 -225 l 180 0 l 291 -12 "},"Ŧ":{"x_min":41.671875,"x_max":916.734375,"ha":958,"o":"m 333 0 l 333 352 l 333 376 l 250 376 l 250 501 l 445 501 l 333 521 l 333 749 l 311 611 l 41 611 l 41 888 l 916 888 l 916 611 l 644 611 l 623 751 l 623 501 l 708 501 l 708 376 l 623 376 l 623 0 l 333 0 "},"y":{"x_min":20.828125,"x_max":908.40625,"ha":928,"o":"m 601 266 l 601 0 l 318 0 l 318 266 l 20 888 l 318 888 l 450 601 l 409 468 l 611 888 l 908 888 l 601 266 l 601 266 "},"g":{"x_min":41.671875,"x_max":929.234375,"ha":972,"o":"m 354 618 l 333 763 l 333 138 l 354 270 l 638 270 l 638 313 l 479 313 l 479 563 l 929 563 l 929 0 l 41 0 l 41 887 l 929 887 l 929 618 l 354 618 "},"ĸ":{"x_min":41.671875,"x_max":929.234375,"ha":953,"o":"m 623 443 l 929 0 l 570 0 l 444 190 l 312 0 l 41 0 l 41 888 l 347 888 l 347 592 l 263 433 l 570 888 l 929 888 l 623 443 "},"²":{"x_min":41.671875,"x_max":304.1875,"ha":346,"o":"m 304 887 l 304 722 l 130 722 l 130 663 l 136 705 l 304 705 l 304 622 l 41 622 l 41 788 l 216 788 l 216 847 l 211 805 l 41 805 l 41 887 l 304 887 l 304 887 "},"–":{"x_min":41.671875,"x_max":638.9375,"ha":681,"o":"m 41 554 l 638 554 l 638 332 l 41 332 l 41 554 "},"ë":{"x_min":41.671875,"x_max":847.296875,"ha":892,"o":"m 137 1070 l 304 1070 l 304 945 l 137 945 l 137 1070 m 581 1070 l 748 1070 l 748 945 l 581 945 l 581 1070 m 354 278 l 847 278 l 847 0 l 41 0 l 41 888 l 847 888 l 847 611 l 354 611 l 333 750 l 333 554 l 777 554 l 777 330 l 333 330 l 333 148 l 354 278 "},"б":{"x_min":41.671875,"x_max":930.625,"ha":972,"o":"m 187 618 l 333 598 l 333 514 l 930 514 l 930 489 l 930 0 l 41 0 l 41 888 l 930 888 l 930 618 l 187 618 m 333 416 l 333 291 l 187 270 l 638 270 l 638 416 l 333 416 "},"⁽":{"x_min":43.0625,"x_max":138.90625,"ha":153,"o":"m 138 590 l 43 590 l 43 986 l 138 986 l 138 916 l 116 916 l 109 966 l 109 608 l 116 657 l 138 657 l 138 590 "},"у":{"x_min":1.390625,"x_max":979.25,"ha":958,"o":"m 540 0 l 197 0 l 320 250 l 1 888 l 338 888 l 470 601 l 430 468 l 632 888 l 979 888 l 540 0 "},"J":{"x_min":41.671875,"x_max":625.046875,"ha":667,"o":"m 319 159 l 319 743 l 298 611 l 172 611 l 172 888 l 625 888 l 625 0 l 41 0 l 41 277 l 298 277 l 319 159 "},"Ã":{"x_min":41.671875,"x_max":929.234375,"ha":972,"o":"m 783 618 l 186 618 l 345 597 l 345 444 l 186 423 l 783 423 l 623 444 l 623 597 l 783 618 m 929 888 l 929 0 l 623 0 l 623 152 l 783 180 l 200 180 l 345 152 l 345 0 l 41 0 l 41 888 l 929 888 m 398 1020 l 506 1040 l 279 1040 l 377 1020 l 338 944 l 159 944 l 159 1095 l 547 1095 l 584 1019 l 488 1000 l 715 1000 l 607 1019 l 645 1095 l 826 1095 l 826 944 l 437 944 l 398 1020 "},"ŷ":{"x_min":16.671875,"x_max":904.234375,"ha":924,"o":"m 597 266 l 597 0 l 313 0 l 313 266 l 16 888 l 313 888 l 445 601 l 405 468 l 607 888 l 904 888 l 597 266 l 597 266 m 444 1020 l 405 944 l 226 944 l 305 1095 l 609 1095 l 684 944 l 504 944 l 465 1020 l 573 1040 l 345 1040 l 444 1020 "},"ŕ":{"x_min":41.671875,"x_max":929.234375,"ha":971,"o":"m 186 618 l 354 597 l 354 451 l 186 430 l 638 430 l 638 618 l 186 618 m 187 166 l 354 145 l 354 0 l 41 0 l 41 888 l 929 888 l 929 166 l 791 166 l 927 0 l 583 0 l 479 145 l 633 166 l 187 166 m 455 1095 l 634 1095 l 555 944 l 370 944 l 455 1095 "},"Ј":{"x_min":41.671875,"x_max":625.046875,"ha":667,"o":"m 319 159 l 319 743 l 298 611 l 172 611 l 172 888 l 625 888 l 625 0 l 41 0 l 41 277 l 298 277 l 319 159 "},"©":{"x_min":42,"x_max":276,"ha":318,"o":"m 42 888 l 276 888 l 276 654 l 42 654 l 42 888 m 59 672 l 258 672 l 258 869 l 59 869 l 59 672 m 136 827 l 136 716 l 140 742 l 230 742 l 230 693 l 86 693 l 86 849 l 230 849 l 230 800 l 140 800 l 136 827 "},"˘":{"x_min":43.0625,"x_max":500.046875,"ha":542,"o":"m 112 998 l 429 998 l 319 1018 l 319 1094 l 500 1094 l 500 943 l 43 943 l 43 1094 l 209 1094 l 209 1018 l 112 998 "},"≥":{"x_min":84.734375,"x_max":654.21875,"ha":743,"o":"m 180 886 l 444 886 l 616 622 l 444 358 l 180 358 l 354 622 l 180 886 m 654 0 l 84 0 l 84 236 l 654 236 l 654 0 "},"Ă":{"x_min":41.671875,"x_max":929.234375,"ha":972,"o":"m 187 618 l 784 618 l 625 597 l 625 444 l 784 423 l 187 423 l 347 444 l 347 597 l 187 618 m 41 887 l 41 0 l 347 0 l 347 152 l 187 180 l 770 180 l 625 152 l 625 0 l 929 0 l 929 887 l 41 887 m 376 1000 l 604 1000 l 495 1019 l 534 1095 l 715 1095 l 640 944 l 336 944 l 256 1095 l 436 1095 l 475 1019 l 376 1000 "},"D":{"x_min":41.671875,"x_max":930.625,"ha":972,"o":"m 354 270 l 638 270 l 638 618 l 354 618 l 333 757 l 333 145 l 354 270 l 354 270 m 930 0 l 41 0 l 41 888 l 930 888 l 930 0 l 930 0 "},"ÿ":{"x_min":23.609375,"x_max":911.1875,"ha":931,"o":"m 604 266 l 604 0 l 320 0 l 320 266 l 23 888 l 320 888 l 452 601 l 412 468 l 613 888 l 911 888 l 604 266 m 163 1070 l 330 1070 l 330 945 l 163 945 l 163 1070 m 608 1070 l 775 1070 l 775 945 l 608 945 l 608 1070 "},"ĺ":{"x_min":41.671875,"x_max":861.1875,"ha":903,"o":"m 368 271 l 861 271 l 861 0 l 41 0 l 41 888 l 347 888 l 347 125 l 368 271 l 368 271 m 179 1095 l 358 1095 l 279 944 l 94 944 l 179 1095 "},"ł":{"x_min":-84.734375,"x_max":861.1875,"ha":903,"o":"m 388 614 l 470 478 l 347 443 l 347 125 l 368 271 l 861 271 l 861 0 l 41 0 l 41 376 l 0 368 l -84 507 l 22 535 l 41 444 l 41 888 l 347 888 l 347 604 l 388 614 "},"ц":{"x_min":41.671875,"x_max":1044.53125,"ha":972,"o":"m 188 270 l 786 270 l 638 291 l 638 887 l 929 887 l 929 0 l 41 0 l 41 887 l 333 887 l 333 291 l 188 270 m 615 -20 l 712 -146 l 1044 -146 l 929 0 l 836 0 l 615 -20 "},"Ł":{"x_min":-84.734375,"x_max":861.1875,"ha":903,"o":"m 388 614 l 470 478 l 347 443 l 347 125 l 368 271 l 861 271 l 861 0 l 41 0 l 41 376 l 0 368 l -84 507 l 22 535 l 41 444 l 41 888 l 347 888 l 347 604 l 388 614 "},"Л":{"x_min":20.828125,"x_max":919.515625,"ha":942,"o":"m 327 610 l 454 589 l 348 0 l 20 0 l 179 888 l 770 888 l 919 0 l 591 0 l 486 589 l 623 610 l 327 610 l 327 610 "},"$":{"x_min":41.671875,"x_max":916.734375,"ha":958,"o":"m 333 -97 l 333 57 l 313 0 l 41 0 l 41 278 l 602 278 l 623 139 l 623 333 l 41 333 l 41 888 l 333 888 l 333 986 l 638 986 l 638 819 l 661 888 l 916 888 l 916 612 l 354 612 l 333 750 l 333 555 l 916 555 l 916 0 l 638 0 l 638 -97 l 333 -97 "},"w":{"x_min":20.828125,"x_max":1034.8125,"ha":1057,"o":"m 637 0 l 534 147 l 429 0 l 180 0 l 20 888 l 312 888 l 395 500 l 323 356 l 451 556 l 616 556 l 751 356 l 675 500 l 743 888 l 1034 888 l 888 0 l 637 0 l 637 0 "},"\\":{"x_min":0,"x_max":844.515625,"ha":846,"o":"m 580 0 l 0 888 l 262 888 l 844 0 l 580 0 "},"о":{"x_min":41.671875,"x_max":929.234375,"ha":972,"o":"m 191 618 l 354 597 l 354 291 l 188 270 l 784 270 l 618 291 l 618 597 l 784 618 l 191 618 m 929 0 l 41 0 l 41 888 l 929 888 l 929 0 "},"Д":{"x_min":22.21875,"x_max":1000.078125,"ha":1022,"o":"m 22 -96 l 22 224 l 100 224 l 220 888 l 812 888 l 926 222 l 1000 222 l 1000 -96 l 768 -96 l 768 -20 l 937 0 l 81 0 l 243 -20 l 243 -96 l 22 -96 m 495 589 l 431 243 l 284 222 l 736 222 l 590 243 l 527 589 l 665 610 l 369 610 l 495 589 "},"Ì":{"x_min":23.609375,"x_max":347.25,"ha":389,"o":"m 41 0 l 41 888 l 347 888 l 347 0 l 41 0 l 41 0 m 287 944 l 102 944 l 23 1095 l 202 1095 l 287 944 "},"Ç":{"x_min":41.671875,"x_max":855.625,"ha":897,"o":"m 333 764 l 333 138 l 354 270 l 855 270 l 855 0 l 41 0 l 41 888 l 855 888 l 855 618 l 354 618 l 333 764 l 333 764 m 429 -41 l 429 -108 l 525 -129 l 375 -129 l 375 -254 l 540 -254 l 540 -29 l 429 -41 "},"ъ":{"x_min":43.0625,"x_max":1080.640625,"ha":1121,"o":"m 1080 721 l 1080 0 l 191 0 l 191 744 l 190 743 l 169 611 l 43 611 l 43 888 l 483 888 l 483 721 l 1080 721 m 504 269 l 788 269 l 788 471 l 504 471 l 483 610 l 483 130 l 504 269 "},"Ŝ":{"x_min":41.671875,"x_max":916.734375,"ha":958,"o":"m 41 888 l 916 888 l 916 612 l 354 612 l 333 750 l 333 556 l 916 556 l 916 0 l 41 0 l 41 278 l 602 278 l 623 139 l 623 333 l 41 333 l 41 888 m 468 1020 l 429 944 l 250 944 l 329 1095 l 633 1095 l 708 944 l 527 944 l 488 1020 l 597 1040 l 369 1040 l 468 1020 "},"₋":{"x_min":41.671875,"x_max":179.1875,"ha":224,"o":"m 41 66 l 179 66 l 179 0 l 41 0 l 41 66 "},"C":{"x_min":41.671875,"x_max":855.625,"ha":899,"o":"m 333 764 l 333 138 l 354 270 l 855 270 l 855 0 l 41 0 l 41 888 l 855 888 l 855 618 l 354 618 l 333 764 l 333 764 "},"Ē":{"x_min":41.671875,"x_max":847.296875,"ha":888,"o":"m 215 1070 l 673 1070 l 673 945 l 215 945 l 215 1070 m 354 277 l 847 277 l 847 0 l 41 0 l 41 887 l 847 887 l 847 610 l 354 610 l 333 749 l 333 554 l 777 554 l 777 330 l 333 330 l 333 148 l 354 277 "},"!":{"x_min":41.671875,"x_max":320.859375,"ha":361,"o":"m 41 167 l 41 888 l 319 888 l 319 167 l 41 167 m 41 0 l 41 125 l 320 125 l 320 0 l 41 0 "},"ç":{"x_min":41.671875,"x_max":855.625,"ha":896,"o":"m 333 764 l 333 138 l 354 270 l 855 270 l 855 0 l 41 0 l 41 888 l 855 888 l 855 618 l 354 618 l 333 764 m 429 -41 l 429 -108 l 525 -129 l 375 -129 l 375 -254 l 540 -254 l 540 -29 l 429 -41 "},"Ĵ":{"x_min":41.671875,"x_max":632,"ha":667,"o":"m 298 277 l 41 277 l 41 0 l 625 0 l 625 888 l 172 888 l 172 611 l 298 611 l 319 743 l 319 159 l 298 277 m 293 1000 l 520 1000 l 412 1019 l 451 1095 l 632 1095 l 556 944 l 252 944 l 173 1095 l 352 1095 l 391 1019 l 293 1000 "},"Й":{"x_min":41.671875,"x_max":929.234375,"ha":972,"o":"m 345 528 l 345 888 l 41 888 l 41 0 l 345 0 l 750 571 l 623 359 l 623 0 l 929 0 l 929 888 l 623 888 l 220 316 l 345 528 m 326 998 l 643 998 l 533 1018 l 533 1094 l 713 1094 l 713 943 l 256 943 l 256 1094 l 423 1094 l 423 1018 l 326 998 "},"È":{"x_min":41.671875,"x_max":847.296875,"ha":889,"o":"m 572 944 l 387 944 l 308 1095 l 487 1095 l 572 944 m 354 277 l 847 277 l 847 0 l 41 0 l 41 887 l 847 887 l 847 610 l 354 610 l 333 749 l 333 554 l 777 554 l 777 330 l 333 330 l 333 148 l 354 277 "},"X":{"x_min":20.828125,"x_max":918.125,"ha":938,"o":"m 20 888 l 344 888 l 448 710 l 386 564 l 594 888 l 918 888 l 636 439 l 918 0 l 594 0 l 490 177 l 552 323 l 344 0 l 20 0 l 302 439 l 20 888 l 20 888 "},"ô":{"x_min":41.671875,"x_max":929.234375,"ha":972,"o":"m 354 597 l 354 291 l 188 270 l 784 270 l 618 291 l 618 597 l 784 618 l 191 618 l 354 597 m 41 0 l 41 888 l 929 888 l 929 0 l 41 0 m 476 1020 l 437 944 l 258 944 l 337 1095 l 641 1095 l 716 944 l 536 944 l 497 1020 l 605 1040 l 377 1040 l 476 1020 "},"Б":{"x_min":41.671875,"x_max":930.625,"ha":972,"o":"m 187 618 l 333 598 l 333 514 l 930 514 l 930 489 l 930 0 l 41 0 l 41 888 l 930 888 l 930 618 l 187 618 m 333 416 l 333 291 l 187 270 l 638 270 l 638 416 l 333 416 "},"Ė":{"x_min":41.671875,"x_max":847.296875,"ha":888,"o":"m 361 1070 l 527 1070 l 527 945 l 361 945 l 361 1070 m 354 277 l 847 277 l 847 0 l 41 0 l 41 887 l 847 887 l 847 610 l 354 610 l 333 749 l 333 554 l 777 554 l 777 330 l 333 330 l 333 148 l 354 277 "},"г":{"x_min":41.671875,"x_max":861.1875,"ha":903,"o":"m 368 617 l 347 762 l 347 0 l 41 0 l 41 888 l 861 888 l 861 617 l 368 617 l 368 617 "},"Ā":{"x_min":41.671875,"x_max":929.234375,"ha":972,"o":"m 347 597 l 347 444 l 187 423 l 784 423 l 625 444 l 625 597 l 784 618 l 187 618 l 347 597 m 929 887 l 929 0 l 625 0 l 625 152 l 770 180 l 187 180 l 347 152 l 347 0 l 41 0 l 41 887 l 929 887 m 250 1070 l 708 1070 l 708 945 l 250 945 l 250 1070 "},"ċ":{"x_min":42,"x_max":856.265625,"ha":897,"o":"m 365 1070 l 532 1070 l 532 945 l 365 945 l 365 1070 m 334 764 l 334 139 l 354 271 l 856 271 l 856 0 l 42 0 l 42 888 l 856 888 l 856 619 l 354 619 l 334 764 "},"đ":{"x_min":0,"x_max":930.625,"ha":972,"o":"m 0 555 l 125 555 l 41 576 l 41 888 l 930 888 l 930 0 l 41 0 l 41 312 l 126 333 l 0 333 l 0 555 m 638 270 l 638 618 l 354 618 l 333 757 l 333 576 l 333 555 l 373 555 l 373 333 l 333 333 l 333 314 l 333 145 l 354 270 l 638 270 "},"Ẃ":{"x_min":20.828125,"x_max":1034.8125,"ha":1057,"o":"m 637 0 l 534 147 l 429 0 l 180 0 l 20 888 l 312 888 l 395 500 l 323 356 l 451 556 l 616 556 l 751 356 l 675 500 l 743 888 l 1034 888 l 888 0 l 637 0 m 513 1095 l 693 1095 l 613 944 l 429 944 l 513 1095 "},"Ŀ":{"x_min":41.671875,"x_max":861.1875,"ha":903,"o":"m 368 271 l 861 271 l 861 0 l 41 0 l 41 888 l 347 888 l 347 125 l 368 271 l 368 271 m 538 476 l 705 476 l 705 601 l 538 601 l 538 476 "},"х":{"x_min":20.828125,"x_max":918.125,"ha":938,"o":"m 20 888 l 344 888 l 448 710 l 386 564 l 594 888 l 918 888 l 636 439 l 918 0 l 594 0 l 490 177 l 552 323 l 344 0 l 20 0 l 302 439 l 20 888 l 20 888 "},"ț":{"x_min":42.3125,"x_max":917.078125,"ha":958,"o":"m 334 0 l 334 749 l 311 612 l 42 612 l 42 888 l 917 888 l 917 612 l 644 612 l 624 752 l 624 0 l 334 0 m 451 -240 l 451 -173 l 547 -153 l 398 -153 l 398 -28 l 563 -28 l 563 -253 l 451 -240 "},"ŋ":{"x_min":41.671875,"x_max":929.234375,"ha":972,"o":"m 625 528 l 625 888 l 929 888 l 929 0 l 625 0 l 220 571 l 347 359 l 347 0 l 41 0 l 41 888 l 347 888 l 750 316 l 625 528 m 458 -95 l 734 -95 l 625 -76 l 625 0 l 805 0 l 805 -151 l 388 -151 l 388 0 l 555 0 l 555 -76 l 458 -95 "},"}":{"x_min":-13.890625,"x_max":375.03125,"ha":344,"o":"m -12 13 l 62 13 l 83 -147 l 83 293 l 152 444 l 83 598 l 83 1044 l 62 875 l -13 875 l -13 1107 l 305 1107 l 305 618 l 283 643 l 375 444 l 284 250 l 305 269 l 306 -208 l -12 -208 l -12 13 "},"â":{"x_min":41.671875,"x_max":929.234375,"ha":972,"o":"m 476 1020 l 437 944 l 258 944 l 337 1095 l 641 1095 l 716 944 l 536 944 l 497 1020 l 605 1040 l 377 1040 l 476 1020 m 783 618 l 186 618 l 345 597 l 345 444 l 186 423 l 783 423 l 623 444 l 623 597 l 783 618 m 929 888 l 929 0 l 623 0 l 623 152 l 783 180 l 200 180 l 345 152 l 345 0 l 41 0 l 41 888 l 929 888 "},"ø":{"x_min":37.5,"x_max":937.578125,"ha":971,"o":"m 37 -41 l 63 0 l 40 0 l 40 888 l 626 888 l 580 786 l 675 932 l 937 932 l 911 888 l 929 888 l 929 0 l 347 0 l 388 97 l 301 -41 l 37 -41 m 331 618 l 333 444 l 333 403 l 333 403 l 469 618 l 331 618 m 637 270 l 637 444 l 730 618 l 505 270 l 637 270 "},"‰":{"x_min":20.828125,"x_max":1201.484375,"ha":1224,"o":"m 20 0 l 602 887 l 922 887 l 341 0 l 20 0 m 95 886 l 415 886 l 415 652 l 95 652 l 95 886 m 520 236 l 840 236 l 840 0 l 520 0 l 520 236 m 882 236 l 1201 236 l 1201 0 l 882 0 l 882 236 "},"Ä":{"x_min":42,"x_max":930,"ha":973,"o":"m 783 619 l 186 619 l 346 598 l 346 444 l 186 424 l 783 424 l 624 444 l 624 598 l 783 619 m 930 888 l 930 0 l 624 0 l 624 153 l 783 181 l 200 181 l 346 153 l 346 0 l 42 0 l 42 888 l 930 888 m 181 1071 l 347 1071 l 347 946 l 181 946 l 181 1071 m 625 1071 l 792 1071 l 792 946 l 625 946 l 625 1071 "},"ř":{"x_min":41.671875,"x_max":929.234375,"ha":971,"o":"m 638 618 l 638 430 l 186 430 l 354 451 l 354 597 l 186 618 l 638 618 m 633 166 l 479 145 l 583 0 l 927 0 l 791 166 l 929 166 l 929 888 l 41 888 l 41 0 l 354 0 l 354 145 l 187 166 l 633 166 m 369 1000 l 597 1000 l 488 1019 l 527 1095 l 708 1095 l 633 944 l 329 944 l 250 1095 l 429 1095 l 468 1019 l 369 1000 "},"Ч":{"x_min":41.671875,"x_max":929.234375,"ha":986,"o":"m 41 888 l 352 888 l 352 508 l 181 487 l 777 487 l 618 508 l 618 888 l 929 888 l 929 0 l 618 0 l 618 159 l 788 180 l 181 180 l 41 180 l 41 888 l 41 888 "},"—":{"x_min":41.671875,"x_max":945.90625,"ha":986,"o":"m 41 554 l 945 554 l 945 332 l 41 332 l 41 554 "},"N":{"x_min":41.671875,"x_max":929.234375,"ha":972,"o":"m 625 528 l 625 888 l 929 888 l 929 0 l 625 0 l 220 571 l 347 359 l 347 0 l 41 0 l 41 888 l 347 888 l 750 316 l 625 528 "},"⁄":{"x_min":0,"x_max":844.515625,"ha":846,"o":"m 0 0 l 581 888 l 844 888 l 263 0 l 0 0 "},"2":{"x_min":41.671875,"x_max":916.734375,"ha":958,"o":"m 916 888 l 916 333 l 334 333 l 334 139 l 355 278 l 916 278 l 916 0 l 41 0 l 41 555 l 625 555 l 625 750 l 604 612 l 41 612 l 41 888 l 916 888 l 916 888 "},"М":{"x_min":41.671875,"x_max":929.234375,"ha":974,"o":"m 220 576 l 331 361 l 331 0 l 41 0 l 41 888 l 347 888 l 484 665 l 625 888 l 929 888 l 929 0 l 637 0 l 637 361 l 748 576 l 575 312 l 394 312 l 220 576 l 220 576 "},"ü":{"x_min":41.671875,"x_max":929.234375,"ha":974,"o":"m 188 270 l 786 270 l 638 291 l 638 888 l 929 888 l 929 0 l 41 0 l 41 888 l 333 888 l 333 291 l 188 270 m 180 1070 l 347 1070 l 347 945 l 180 945 l 180 1070 m 625 1070 l 791 1070 l 791 945 l 625 945 l 625 1070 "},"ь":{"x_min":41.671875,"x_max":930.625,"ha":971,"o":"m 333 130 l 354 269 l 615 269 l 638 269 l 638 471 l 615 471 l 354 471 l 333 610 l 333 130 m 333 721 l 930 721 l 930 0 l 41 0 l 41 888 l 333 888 l 333 721 "},"˜":{"x_min":41.671875,"x_max":708.390625,"ha":751,"o":"m 280 1022 l 388 1041 l 161 1041 l 259 1022 l 220 945 l 41 945 l 41 1097 l 429 1097 l 466 1020 l 370 1001 l 597 1001 l 488 1020 l 527 1097 l 708 1097 l 708 945 l 319 945 l 280 1022 "},"Ó":{"x_min":41.671875,"x_max":929.234375,"ha":971,"o":"m 354 597 l 354 291 l 188 270 l 784 270 l 618 291 l 618 597 l 784 618 l 191 618 l 354 597 m 41 0 l 41 888 l 929 888 l 929 0 l 41 0 m 450 1095 l 629 1095 l 550 944 l 365 944 l 450 1095 "},"ˇ":{"x_min":43.0625,"x_max":501.421875,"ha":542,"o":"m 162 1000 l 390 1000 l 281 1019 l 320 1095 l 501 1095 l 426 944 l 122 944 l 43 1095 l 222 1095 l 261 1019 l 162 1000 "},"Ў":{"x_min":1.390625,"x_max":979.25,"ha":958,"o":"m 333 998 l 650 998 l 540 1018 l 540 1094 l 720 1094 l 720 943 l 263 943 l 263 1094 l 430 1094 l 430 1018 l 333 998 m 540 0 l 197 0 l 320 250 l 1 888 l 338 888 l 470 601 l 430 468 l 632 888 l 979 888 l 540 0 "},"Ÿ":{"x_min":23.609375,"x_max":911.1875,"ha":932,"o":"m 604 266 l 604 0 l 320 0 l 320 266 l 23 887 l 320 887 l 452 601 l 412 468 l 613 887 l 911 887 l 604 266 m 152 1070 l 319 1070 l 319 945 l 152 945 l 152 1070 m 611 1070 l 777 1070 l 777 945 l 611 945 l 611 1070 "},"ų":{"x_min":41.671875,"x_max":929.234375,"ha":972,"o":"m 188 270 l 786 270 l 638 291 l 638 888 l 929 888 l 929 0 l 41 0 l 41 888 l 333 888 l 333 291 l 188 270 l 188 270 m 833 -12 l 833 -79 l 737 -100 l 887 -100 l 887 -225 l 722 -225 l 722 0 l 833 -12 "},"€":{"x_min":20.828125,"x_max":876.453125,"ha":917,"o":"m 20 430 l 229 430 l 62 450 l 62 459 l 20 459 l 20 585 l 229 585 l 62 604 l 62 888 l 876 888 l 876 618 l 375 618 l 354 764 l 354 585 l 533 585 l 533 459 l 354 459 l 354 430 l 533 430 l 533 305 l 354 305 l 354 138 l 375 270 l 876 270 l 876 0 l 62 0 l 62 305 l 20 305 l 20 430 "},"в":{"x_min":42,"x_max":931,"ha":971,"o":"m 334 417 l 334 291 l 188 271 l 639 271 l 639 417 l 334 417 m 188 619 l 334 599 l 334 514 l 639 514 l 639 619 l 188 619 m 931 489 l 771 451 l 931 451 l 931 0 l 42 0 l 42 888 l 931 888 l 931 489 "},"Ŭ":{"x_min":41.671875,"x_max":929.234375,"ha":971,"o":"m 188 270 l 786 270 l 638 291 l 638 888 l 929 888 l 929 0 l 41 0 l 41 888 l 333 888 l 333 291 l 188 270 m 326 998 l 643 998 l 533 1018 l 533 1094 l 713 1094 l 713 943 l 256 943 l 256 1094 l 423 1094 l 423 1018 l 326 998 "},"С":{"x_min":41.671875,"x_max":855.625,"ha":897,"o":"m 333 764 l 333 138 l 354 270 l 855 270 l 855 0 l 41 0 l 41 888 l 855 888 l 855 618 l 354 618 l 333 764 l 333 764 "},"ĝ":{"x_min":41.671875,"x_max":929.234375,"ha":972,"o":"m 354 618 l 333 763 l 333 138 l 354 270 l 638 270 l 638 313 l 479 313 l 479 563 l 929 563 l 929 0 l 41 0 l 41 887 l 929 887 l 929 618 l 354 618 m 469 1020 l 430 944 l 251 944 l 330 1095 l 634 1095 l 709 944 l 529 944 l 490 1020 l 598 1040 l 370 1040 l 469 1020 "},"ß":{"x_min":41.671875,"x_max":1833.484375,"ha":1875,"o":"m 41 888 l 916 888 l 916 612 l 354 612 l 333 750 l 333 555 l 916 555 l 916 0 l 41 0 l 41 278 l 602 278 l 623 139 l 623 333 l 41 333 l 41 888 l 41 888 m 958 888 l 1833 888 l 1833 612 l 1270 612 l 1250 750 l 1250 555 l 1833 555 l 1833 0 l 958 0 l 958 278 l 1519 278 l 1540 139 l 1540 333 l 958 333 l 958 888 "},"њ":{"x_min":41.671875,"x_max":1526.515625,"ha":1571,"o":"m 41 888 l 354 888 l 354 618 l 183 597 l 777 597 l 618 618 l 618 888 l 929 888 l 929 721 l 1526 721 l 1526 0 l 618 0 l 618 269 l 788 290 l 183 290 l 354 269 l 354 0 l 41 0 l 41 888 m 950 269 l 1234 269 l 1234 471 l 950 471 l 929 610 l 929 130 l 950 269 "},"s":{"x_min":41.671875,"x_max":916.734375,"ha":958,"o":"m 41 888 l 916 888 l 916 612 l 354 612 l 333 750 l 333 555 l 916 555 l 916 0 l 41 0 l 41 278 l 602 278 l 623 139 l 623 333 l 41 333 l 41 888 l 41 888 "},"Ű":{"x_min":41.671875,"x_max":929.234375,"ha":972,"o":"m 188 270 l 786 270 l 638 291 l 638 888 l 929 888 l 929 0 l 41 0 l 41 888 l 333 888 l 333 291 l 188 270 l 188 270 m 329 1095 l 508 1095 l 429 944 l 244 944 l 329 1095 m 598 1095 l 777 1095 l 698 944 l 513 944 l 598 1095 "},"?":{"x_min":41.671875,"x_max":619.5,"ha":663,"o":"m 41 166 l 41 526 l 302 526 l 326 386 l 326 777 l 302 618 l 41 618 l 41 887 l 619 887 l 619 276 l 325 276 l 325 166 l 41 166 m 41 0 l 41 125 l 325 125 l 325 0 l 41 0 "},"₆":{"x_min":40.28125,"x_max":306.96875,"ha":346,"o":"m 127 38 l 133 80 l 212 80 l 219 80 l 219 140 l 212 140 l 133 140 l 127 181 l 127 38 m 127 215 l 306 215 l 306 0 l 40 0 l 40 265 l 127 265 l 127 215 "},"Ņ":{"x_min":41.671875,"x_max":929.234375,"ha":972,"o":"m 625 528 l 625 888 l 929 888 l 929 0 l 625 0 l 220 571 l 347 359 l 347 0 l 41 0 l 41 888 l 347 888 l 750 316 l 625 528 m 456 -240 l 456 -173 l 552 -152 l 402 -152 l 402 -27 l 568 -27 l 568 -252 l 456 -240 "},"c":{"x_min":41.671875,"x_max":855.625,"ha":897,"o":"m 333 764 l 333 138 l 354 270 l 855 270 l 855 0 l 41 0 l 41 888 l 855 888 l 855 618 l 354 618 l 333 764 l 333 764 "},"¶":{"x_min":41.671875,"x_max":916.734375,"ha":958,"o":"m 41 1109 l 916 1109 l 916 833 l 354 833 l 333 972 l 333 777 l 916 777 l 916 -222 l 41 -222 l 41 55 l 602 55 l 623 -83 l 623 111 l 41 111 l 41 1109 m 602 388 l 623 250 l 623 555 l 333 555 l 333 388 l 602 388 "},"Ī":{"x_min":0,"x_max":388.921875,"ha":389,"o":"m 41 0 l 41 888 l 347 888 l 347 0 l 41 0 l 41 0 m 0 1070 l 388 1070 l 388 945 l 0 945 l 0 1070 "},"•":{"x_min":20.828125,"x_max":388.921875,"ha":410,"o":"m 256 372 l 294 381 l 322 272 l 173 358 l 194 331 l 94 268 l 134 443 l 111 408 l 20 482 l 191 503 l 159 512 l 201 619 l 270 464 l 270 497 l 388 489 l 256 372 "},"н":{"x_min":42,"x_max":929,"ha":971,"o":"m 42 888 l 355 888 l 355 617 l 183 597 l 777 597 l 618 617 l 618 888 l 929 888 l 929 0 l 618 0 l 618 269 l 788 290 l 183 290 l 355 269 l 355 0 l 42 0 l 42 888 l 42 888 "},"(":{"x_min":40.28125,"x_max":402.8125,"ha":424,"o":"m 402 -206 l 40 -206 l 41 1111 l 402 1111 l 402 879 l 284 879 l 263 1048 l 263 -147 l 284 13 l 402 13 l 402 -206 "},"м":{"x_min":41.671875,"x_max":929.234375,"ha":974,"o":"m 220 576 l 331 361 l 331 0 l 41 0 l 41 888 l 347 888 l 484 665 l 625 888 l 929 888 l 929 0 l 637 0 l 637 361 l 748 576 l 575 312 l 394 312 l 220 576 l 220 576 "},"­":{"x_min":41.671875,"x_max":945.90625,"ha":986,"o":"m 41 554 l 945 554 l 945 332 l 41 332 l 41 554 "},"Ħ":{"x_min":41.671875,"x_max":929.234375,"ha":971,"o":"m 255 1069 l 713 1069 l 713 944 l 255 944 l 255 1069 m 41 888 l 354 888 l 354 618 l 183 597 l 777 597 l 618 618 l 618 888 l 929 888 l 929 0 l 618 0 l 618 269 l 788 290 l 183 290 l 354 269 l 354 0 l 41 0 l 41 888 l 41 888 "},"⁹":{"x_min":41.671875,"x_max":308.359375,"ha":347,"o":"m 220 848 l 213 807 l 136 807 l 129 807 l 129 747 l 136 747 l 213 747 l 220 705 l 220 848 m 220 672 l 41 672 l 41 888 l 308 888 l 308 622 l 220 622 l 220 672 "},"з":{"x_min":41.078125,"x_max":847,"ha":887,"o":"m 534 278 l 555 148 l 555 333 l 110 333 l 110 557 l 555 557 l 555 750 l 534 612 l 41 612 l 41 888 l 847 888 l 847 467 l 763 445 l 847 422 l 847 0 l 41 0 l 41 278 l 534 278 l 534 278 "},":":{"x_min":41.671875,"x_max":208.34375,"ha":250,"o":"m 41 291 l 208 291 l 208 166 l 41 166 l 41 291 m 41 722 l 208 722 l 208 597 l 41 597 l 41 722 "},"Ѝ":{"x_min":41.671875,"x_max":929.234375,"ha":972,"o":"m 345 528 l 345 888 l 41 888 l 41 0 l 345 0 l 750 571 l 623 359 l 623 0 l 929 0 l 929 888 l 623 888 l 220 316 l 345 528 m 572 944 l 387 944 l 308 1095 l 487 1095 l 572 944 "},"і":{"x_min":41.671875,"x_max":347.25,"ha":389,"o":"m 41 0 l 41 888 l 347 888 l 347 0 l 41 0 l 41 0 "},"Û":{"x_min":41.671875,"x_max":929.234375,"ha":971,"o":"m 188 270 l 786 270 l 638 291 l 638 888 l 929 888 l 929 0 l 41 0 l 41 888 l 333 888 l 333 291 l 188 270 m 476 1020 l 437 944 l 258 944 l 337 1095 l 641 1095 l 716 944 l 536 944 l 497 1020 l 605 1040 l 377 1040 l 476 1020 "},"ś":{"x_min":41.671875,"x_max":916.734375,"ha":958,"o":"m 41 888 l 916 888 l 916 612 l 354 612 l 333 750 l 333 556 l 916 556 l 916 0 l 41 0 l 41 278 l 602 278 l 623 139 l 623 333 l 41 333 l 41 888 m 455 1095 l 634 1095 l 555 944 l 370 944 l 455 1095 "},"V":{"x_min":20.828125,"x_max":919.515625,"ha":936,"o":"m 327 277 l 623 277 l 486 298 l 591 888 l 919 888 l 770 0 l 179 0 l 20 888 l 348 888 l 454 298 l 327 277 l 327 277 "},"Ŗ":{"x_min":41.671875,"x_max":929.234375,"ha":971,"o":"m 186 618 l 354 597 l 354 451 l 186 430 l 638 430 l 638 618 l 186 618 m 187 166 l 354 145 l 354 0 l 41 0 l 41 888 l 929 888 l 929 166 l 791 166 l 927 0 l 583 0 l 479 145 l 633 166 l 187 166 m 441 -240 l 441 -173 l 537 -152 l 387 -152 l 387 -27 l 552 -27 l 552 -252 l 441 -240 "},"У":{"x_min":1.390625,"x_max":979.25,"ha":958,"o":"m 540 0 l 197 0 l 320 250 l 1 888 l 338 888 l 470 601 l 430 468 l 632 888 l 979 888 l 540 0 "},"@":{"x_min":43,"x_max":931,"ha":974,"o":"m 43 888 l 931 888 l 931 186 l 221 186 l 221 518 l 571 518 l 571 645 l 561 564 l 221 564 l 221 708 l 743 708 l 743 280 l 838 280 l 838 806 l 136 806 l 136 83 l 931 83 l 931 0 l 43 0 l 43 888 m 395 429 l 395 344 l 561 344 l 571 263 l 571 429 l 395 429 "},"¾":{"x_min":37.5,"x_max":308.359375,"ha":347,"o":"m 40 375 l 133 375 l 133 261 l 81 255 l 261 255 l 212 261 l 212 375 l 305 375 l 305 109 l 212 109 l 212 156 l 263 163 l 81 163 l 40 163 l 40 375 m 37 483 l 308 483 l 308 416 l 37 416 l 37 483 m 206 572 l 206 627 l 73 627 l 73 694 l 206 694 l 206 752 l 200 711 l 52 711 l 52 793 l 294 793 l 294 668 l 269 661 l 294 654 l 294 527 l 52 527 l 52 611 l 200 611 l 206 572 "},"ŉ":{"x_min":20.828125,"x_max":1105.640625,"ha":1149,"o":"m 75 675 l 75 742 l 170 762 l 20 762 l 20 888 l 186 888 l 186 662 l 75 675 m 801 528 l 801 888 l 1105 888 l 1105 0 l 801 0 l 397 571 l 523 359 l 523 0 l 218 0 l 218 888 l 523 888 l 926 316 l 801 528 "},"i":{"x_min":41.671875,"x_max":347.25,"ha":389,"o":"m 41 0 l 41 888 l 347 888 l 347 0 l 41 0 l 41 0 "},"⁶":{"x_min":40.28125,"x_max":306.96875,"ha":346,"o":"m 127 661 l 133 702 l 212 702 l 219 702 l 219 762 l 212 762 l 133 762 l 127 804 l 127 661 m 127 837 l 306 837 l 306 622 l 40 622 l 40 888 l 127 888 l 127 837 "},"≤":{"x_min":84.734375,"x_max":654.21875,"ha":743,"o":"m 384 622 l 558 358 l 294 358 l 122 622 l 294 886 l 558 886 l 384 622 m 84 0 l 654 0 l 654 236 l 84 236 l 84 0 "},"ё":{"x_min":41.671875,"x_max":847.296875,"ha":888,"o":"m 137 1070 l 304 1070 l 304 945 l 137 945 l 137 1070 m 581 1070 l 748 1070 l 748 945 l 581 945 l 581 1070 m 354 278 l 847 278 l 847 0 l 41 0 l 41 888 l 847 888 l 847 611 l 354 611 l 333 750 l 333 554 l 777 554 l 777 330 l 333 330 l 333 148 l 354 278 "},"⅓":{"x_min":37.5,"x_max":308.359375,"ha":347,"o":"m 127 700 l 176 707 l 120 707 l 94 707 l 127 793 l 219 793 l 219 527 l 127 527 l 127 700 m 37 483 l 308 483 l 308 416 l 37 416 l 37 483 m 206 154 l 206 209 l 73 209 l 73 276 l 206 276 l 206 334 l 200 293 l 52 293 l 52 375 l 294 375 l 294 250 l 269 243 l 294 236 l 294 109 l 52 109 l 52 193 l 200 193 l 206 154 "},"Ģ":{"x_min":41.671875,"x_max":929.234375,"ha":972,"o":"m 354 618 l 333 763 l 333 138 l 354 270 l 638 270 l 638 313 l 479 313 l 479 563 l 929 563 l 929 0 l 41 0 l 41 887 l 929 887 l 929 618 l 354 618 m 470 -238 l 470 -172 l 566 -151 l 416 -151 l 416 -26 l 581 -26 l 581 -251 l 470 -238 "},"m":{"x_min":41.671875,"x_max":929.234375,"ha":974,"o":"m 220 576 l 331 361 l 331 0 l 41 0 l 41 888 l 347 888 l 484 665 l 625 888 l 929 888 l 929 0 l 637 0 l 637 361 l 748 576 l 575 312 l 394 312 l 220 576 l 220 576 "},"ĕ":{"x_min":41.671875,"x_max":847.296875,"ha":888,"o":"m 354 277 l 847 277 l 847 0 l 41 0 l 41 887 l 847 887 l 847 610 l 354 610 l 333 749 l 333 554 l 777 554 l 777 330 l 333 330 l 333 148 l 354 277 m 290 998 l 607 998 l 497 1018 l 497 1094 l 677 1094 l 677 943 l 220 943 l 220 1094 l 387 1094 l 387 1018 l 290 998 "},"ż":{"x_min":41.671875,"x_max":888.953125,"ha":929,"o":"m 597 743 l 416 618 l 41 618 l 41 887 l 888 887 l 888 625 l 319 131 l 526 277 l 888 277 l 888 0 l 41 0 l 41 277 l 597 743 l 597 743 m 400 1070 l 566 1070 l 566 945 l 400 945 l 400 1070 "},"Е":{"x_min":41.671875,"x_max":847.296875,"ha":888,"o":"m 354 277 l 847 277 l 847 0 l 41 0 l 41 887 l 847 887 l 847 610 l 354 610 l 333 749 l 333 554 l 777 554 l 777 330 l 333 330 l 333 148 l 354 277 l 354 277 "},"Э":{"x_min":41.671875,"x_max":847.296875,"ha":888,"o":"m 534 277 l 555 148 l 555 330 l 111 330 l 111 554 l 555 554 l 555 749 l 534 610 l 41 610 l 41 887 l 847 887 l 847 0 l 41 0 l 41 277 l 534 277 l 534 277 "},"ő":{"x_min":41.671875,"x_max":929.234375,"ha":971,"o":"m 354 597 l 354 291 l 188 270 l 784 270 l 618 291 l 618 597 l 784 618 l 191 618 l 354 597 m 41 0 l 41 888 l 929 888 l 929 0 l 41 0 m 329 1095 l 508 1095 l 429 944 l 244 944 l 329 1095 m 598 1095 l 777 1095 l 698 944 l 513 944 l 598 1095 "},"ž":{"x_min":41.671875,"x_max":888.953125,"ha":931,"o":"m 369 1000 l 597 1000 l 488 1019 l 527 1095 l 708 1095 l 633 944 l 329 944 l 250 1095 l 429 1095 l 468 1019 l 369 1000 m 597 743 l 416 618 l 41 618 l 41 887 l 888 887 l 888 625 l 319 131 l 526 277 l 888 277 l 888 0 l 41 0 l 41 277 l 597 743 "},"⁵":{"x_min":40.28125,"x_max":302.796875,"ha":347,"o":"m 127 622 l 40 622 l 40 705 l 209 705 l 215 663 l 215 722 l 40 722 l 40 887 l 127 887 l 219 887 l 302 887 l 302 805 l 134 805 l 127 847 l 127 788 l 302 788 l 302 622 l 219 622 l 127 622 "},"ю":{"x_min":42,"x_max":1269,"ha":1312,"o":"m 382 0 l 382 290 l 157 290 l 328 269 l 328 0 l 42 0 l 42 888 l 328 888 l 328 619 l 157 597 l 382 597 l 382 888 l 1269 888 l 1269 0 l 382 0 m 694 597 l 694 291 l 529 270 l 1124 270 l 958 291 l 958 597 l 1124 619 l 531 619 l 694 597 "},"Ŏ":{"x_min":41.671875,"x_max":929.234375,"ha":972,"o":"m 191 618 l 784 618 l 618 597 l 618 291 l 784 270 l 188 270 l 354 291 l 354 597 l 191 618 m 929 0 l 929 888 l 41 888 l 41 0 l 929 0 m 333 998 l 650 998 l 540 1018 l 540 1094 l 720 1094 l 720 943 l 263 943 l 263 1094 l 430 1094 l 430 1018 l 333 998 "},"á":{"x_min":41.671875,"x_max":929.234375,"ha":972,"o":"m 783 618 l 186 618 l 345 597 l 345 444 l 186 423 l 783 423 l 623 444 l 623 597 l 783 618 m 929 888 l 929 0 l 623 0 l 623 152 l 783 180 l 200 180 l 345 152 l 345 0 l 41 0 l 41 888 l 929 888 m 445 1095 l 625 1095 l 545 944 l 361 944 l 445 1095 "},"Ѐ":{"x_min":41.671875,"x_max":847.296875,"ha":889,"o":"m 572 944 l 387 944 l 308 1095 l 487 1095 l 572 944 m 354 278 l 847 278 l 847 0 l 41 0 l 41 888 l 847 888 l 847 611 l 354 611 l 333 750 l 333 554 l 777 554 l 777 330 l 333 330 l 333 148 l 354 278 "},"×":{"x_min":22.21875,"x_max":630.609375,"ha":653,"o":"m 208 742 l 326 623 l 434 732 l 630 536 l 405 309 l 537 412 l 630 319 l 444 133 l 336 241 l 227 133 l 31 329 l 256 554 l 126 451 l 22 555 l 208 742 "},"İ":{"x_min":41.671875,"x_max":347.25,"ha":389,"o":"m 41 0 l 41 888 l 347 888 l 347 0 l 41 0 l 41 0 m 106 1070 l 273 1070 l 273 945 l 106 945 l 106 1070 "},"⁲":{"x_min":41.671875,"x_max":304.1875,"ha":346,"o":"m 304 887 l 304 722 l 130 722 l 130 663 l 136 705 l 304 705 l 304 622 l 41 622 l 41 788 l 216 788 l 216 847 l 211 805 l 41 805 l 41 887 l 304 887 l 304 887 "},"Ě":{"x_min":41.671875,"x_max":847.296875,"ha":888,"o":"m 345 1000 l 573 1000 l 465 1019 l 504 1095 l 684 1095 l 609 944 l 305 944 l 226 1095 l 405 1095 l 444 1019 l 345 1000 m 354 277 l 847 277 l 847 0 l 41 0 l 41 887 l 847 887 l 847 610 l 354 610 l 333 749 l 333 554 l 777 554 l 777 330 l 333 330 l 333 148 l 354 277 "},"п":{"x_min":41.671875,"x_max":929.234375,"ha":972,"o":"m 188 617 l 333 596 l 333 0 l 41 0 l 41 888 l 929 888 l 929 0 l 638 0 l 638 596 l 786 617 l 188 617 l 188 617 "},"K":{"x_min":41.671875,"x_max":929.234375,"ha":953,"o":"m 623 443 l 929 0 l 570 0 l 444 190 l 312 0 l 41 0 l 41 888 l 347 888 l 347 592 l 263 433 l 570 888 l 929 888 l 623 443 "},"7":{"x_min":41.671875,"x_max":888.953125,"ha":931,"o":"m 597 743 l 416 618 l 41 618 l 41 887 l 888 887 l 888 625 l 529 287 l 529 0 l 223 0 l 223 405 l 597 743 l 597 743 "},"⁰":{"x_min":41.671875,"x_max":305.578125,"ha":347,"o":"m 86 807 l 134 801 l 134 709 l 86 702 l 261 702 l 211 709 l 211 801 l 261 807 l 86 807 m 305 622 l 41 622 l 41 888 l 305 888 l 305 622 "},"¨":{"x_min":41.671875,"x_max":652.828125,"ha":697,"o":"m 41 1070 l 208 1070 l 208 945 l 41 945 l 41 1070 m 486 1070 l 652 1070 l 652 945 l 486 945 l 486 1070 "},"Y":{"x_min":16.671875,"x_max":904.234375,"ha":924,"o":"m 597 266 l 597 0 l 313 0 l 313 266 l 16 888 l 313 888 l 445 601 l 405 468 l 607 888 l 904 888 l 597 266 l 597 266 "},"E":{"x_min":41.671875,"x_max":847.296875,"ha":888,"o":"m 354 277 l 847 277 l 847 0 l 41 0 l 41 887 l 847 887 l 847 610 l 354 610 l 333 749 l 333 554 l 777 554 l 777 330 l 333 330 l 333 148 l 354 277 l 354 277 "},"Ô":{"x_min":41.671875,"x_max":929.234375,"ha":972,"o":"m 354 597 l 354 291 l 188 270 l 784 270 l 618 291 l 618 597 l 784 618 l 191 618 l 354 597 m 41 0 l 41 888 l 929 888 l 929 0 l 41 0 m 476 1020 l 437 944 l 258 944 l 337 1095 l 641 1095 l 716 944 l 536 944 l 497 1020 l 605 1040 l 377 1040 l 476 1020 "},"Ț":{"x_min":41.671875,"x_max":916.734375,"ha":958,"o":"m 333 0 l 333 749 l 311 611 l 41 611 l 41 888 l 916 888 l 916 611 l 644 611 l 623 751 l 623 0 l 333 0 m 451 -240 l 451 -173 l 547 -152 l 397 -152 l 397 -27 l 562 -27 l 562 -252 l 451 -240 "},"‹":{"x_min":-1.390625,"x_max":434.75,"ha":451,"o":"m 261 444 l 434 181 l 170 181 l -1 444 l 170 708 l 434 708 l 261 444 "},"Є":{"x_min":41.671875,"x_max":847.296875,"ha":888,"o":"m 354 277 l 847 277 l 847 0 l 41 0 l 41 887 l 847 887 l 847 610 l 354 610 l 333 749 l 333 554 l 777 554 l 777 330 l 333 330 l 333 148 l 354 277 "},"Ï":{"x_min":0,"x_max":388.921875,"ha":389,"o":"m 41 0 l 41 888 l 347 888 l 347 0 l 41 0 l 41 0 m 0 1070 l 166 1070 l 166 945 l 0 945 l 0 1070 m 222 1070 l 388 1070 l 388 945 l 222 945 l 222 1070 "},"₂":{"x_min":41.671875,"x_max":304.1875,"ha":346,"o":"m 304 265 l 304 100 l 130 100 l 130 41 l 136 83 l 304 83 l 304 0 l 41 0 l 41 166 l 216 166 l 216 225 l 211 183 l 41 183 l 41 265 l 304 265 l 304 265 "},"ġ":{"x_min":42,"x_max":929.875,"ha":972,"o":"m 354 619 l 334 764 l 334 139 l 354 271 l 639 271 l 639 314 l 479 314 l 479 564 l 929 564 l 929 0 l 42 0 l 42 888 l 929 888 l 929 619 l 354 619 m 401 1071 l 568 1071 l 568 946 l 401 946 l 401 1071 "},"ķ":{"x_min":41.671875,"x_max":929.234375,"ha":951,"o":"m 623 443 l 929 0 l 570 0 l 444 190 l 312 0 l 41 0 l 41 888 l 347 888 l 347 592 l 263 433 l 570 888 l 929 888 l 623 443 m 413 -240 l 413 -173 l 509 -152 l 359 -152 l 359 -27 l 525 -27 l 525 -252 l 413 -240 "},"⁺":{"x_min":40,"x_max":211,"ha":250,"o":"m 86 708 l 86 753 l 136 759 l 40 759 l 40 842 l 86 842 l 86 888 l 165 888 l 165 848 l 115 842 l 211 842 l 211 759 l 165 759 l 165 708 l 86 708 "},"±":{"x_min":41.21875,"x_max":610.78125,"ha":651,"o":"m 194 290 l 194 437 l 359 457 l 41 457 l 41 735 l 194 735 l 194 888 l 458 888 l 458 755 l 291 735 l 610 735 l 610 457 l 458 457 l 458 290 l 194 290 m 41 1 l 609 1 l 609 239 l 41 239 l 41 1 "},"ì":{"x_min":23.609375,"x_max":347.25,"ha":389,"o":"m 41 0 l 41 888 l 347 888 l 347 0 l 41 0 l 41 0 m 287 944 l 102 944 l 23 1095 l 202 1095 l 287 944 "},"|":{"x_min":40,"x_max":264,"ha":306,"o":"m 264 -196 l 40 -196 l 41 1113 l 264 1113 l 264 -196 "},"§":{"x_min":42,"x_max":917,"ha":959,"o":"m 42 1110 l 917 1110 l 917 834 l 354 834 l 334 972 l 334 778 l 917 778 l 917 -222 l 42 -222 l 42 56 l 603 56 l 624 -82 l 624 111 l 42 111 l 42 1110 m 603 389 l 624 250 l 624 556 l 334 556 l 334 389 l 603 389 "},"љ":{"x_min":21.109375,"x_max":1528,"ha":1568,"o":"m 1528 721 l 1528 0 l 618 0 l 617 589 l 754 610 l 423 610 l 550 589 l 348 0 l 21 0 l 353 888 l 931 888 l 931 721 l 1528 721 m 951 269 l 1236 269 l 1236 471 l 951 471 l 931 609 l 931 130 l 951 269 "},"й":{"x_min":41.671875,"x_max":929.234375,"ha":972,"o":"m 345 528 l 345 888 l 41 888 l 41 0 l 345 0 l 750 571 l 623 359 l 623 0 l 929 0 l 929 888 l 623 888 l 220 316 l 345 528 m 326 998 l 643 998 l 533 1018 l 533 1094 l 713 1094 l 713 943 l 256 943 l 256 1094 l 423 1094 l 423 1018 l 326 998 "},"q":{"x_min":41.671875,"x_max":929.234375,"ha":972,"o":"m 354 597 l 354 291 l 187 270 l 783 270 l 618 291 l 618 597 l 783 618 l 187 618 l 354 597 m 720 0 l 41 0 l 41 887 l 929 887 l 929 0 l 813 0 l 929 -146 l 597 -146 l 500 -20 l 720 0 "},"b":{"x_min":41.671875,"x_max":930.625,"ha":972,"o":"m 333 416 l 333 291 l 187 270 l 638 270 l 638 416 l 333 416 m 187 618 l 333 598 l 333 514 l 638 514 l 638 618 l 187 618 m 930 489 l 770 451 l 930 451 l 930 0 l 41 0 l 41 888 l 930 888 l 930 489 "},"Ж":{"x_min":22.21875,"x_max":1501.515625,"ha":1521,"o":"m 22 888 l 380 888 l 380 888 l 579 593 l 604 433 l 604 592 l 604 888 l 919 888 l 919 592 l 836 433 l 1143 888 l 1501 888 l 1195 443 l 1501 0 l 1143 0 l 1016 190 l 884 0 l 638 0 l 506 190 l 380 0 l 22 0 l 327 443 l 22 888 "},"®":{"x_min":42,"x_max":278,"ha":318,"o":"m 42 888 l 278 888 l 278 654 l 42 654 l 42 888 m 59 672 l 259 672 l 259 869 l 59 869 l 59 672 m 107 723 l 134 720 l 134 693 l 79 693 l 79 851 l 239 850 l 239 723 l 214 723 l 239 693 l 175 693 l 158 720 l 184 723 l 107 723 m 107 802 l 134 799 l 134 771 l 107 770 l 184 770 l 184 802 l 107 802 "},"Н":{"x_min":41.671875,"x_max":929.234375,"ha":971,"o":"m 41 888 l 354 888 l 354 618 l 183 597 l 777 597 l 618 618 l 618 888 l 929 888 l 929 0 l 618 0 l 618 269 l 788 290 l 183 290 l 354 269 l 354 0 l 41 0 l 41 888 l 41 888 "},"ф":{"x_min":42,"x_max":1482,"ha":1529,"o":"m 915 170 l 915 0 l 609 0 l 609 167 l 42 167 l 42 889 l 334 889 l 1482 889 l 1482 170 l 915 170 m 938 420 l 1190 420 l 1190 618 l 938 618 l 915 777 l 914 279 l 938 420 m 334 618 l 334 420 l 586 420 l 609 288 l 609 768 l 586 618 l 334 618 "},"л":{"x_min":20.828125,"x_max":919.515625,"ha":942,"o":"m 327 610 l 454 589 l 348 0 l 20 0 l 179 888 l 770 888 l 919 0 l 591 0 l 486 589 l 623 610 l 327 610 l 327 610 "},"Ŋ":{"x_min":41.671875,"x_max":929.234375,"ha":972,"o":"m 625 528 l 625 888 l 929 888 l 929 0 l 625 0 l 220 571 l 347 359 l 347 0 l 41 0 l 41 888 l 347 888 l 750 316 l 625 528 m 458 -95 l 734 -95 l 625 -76 l 625 0 l 805 0 l 805 -151 l 388 -151 l 388 0 l 555 0 l 555 -76 l 458 -95 "},"Ũ":{"x_min":41.671875,"x_max":929.234375,"ha":971,"o":"m 188 270 l 786 270 l 638 291 l 638 888 l 929 888 l 929 0 l 41 0 l 41 888 l 333 888 l 333 291 l 188 270 m 390 1020 l 498 1040 l 270 1040 l 369 1020 l 330 944 l 151 944 l 151 1095 l 538 1095 l 576 1019 l 480 1000 l 707 1000 l 598 1019 l 637 1095 l 818 1095 l 818 944 l 429 944 l 390 1020 "},"Щ":{"x_min":42,"x_max":1484.625,"ha":1527,"o":"m 914 271 l 1340 271 l 1193 291 l 1193 888 l 1483 888 l 1483 0 l 42 0 l 42 888 l 334 888 l 334 291 l 189 271 l 610 271 l 610 888 l 915 888 l 914 271 m 1055 -20 l 1152 -146 l 1484 -146 l 1369 0 l 1276 0 l 1055 -20 "},"L":{"x_min":41.671875,"x_max":861.1875,"ha":903,"o":"m 368 271 l 861 271 l 861 0 l 41 0 l 41 888 l 347 888 l 347 125 l 368 271 l 368 271 "},"ď":{"x_min":41.671875,"x_max":930.625,"ha":972,"o":"m 354 270 l 638 270 l 638 618 l 354 618 l 333 757 l 333 145 l 354 270 l 354 270 m 930 0 l 41 0 l 41 888 l 930 888 l 930 0 l 930 0 m 376 1000 l 604 1000 l 495 1019 l 534 1095 l 715 1095 l 640 944 l 336 944 l 256 1095 l 436 1095 l 475 1019 l 376 1000 "}," ":{"x_min":0,"x_max":0,"ha":594},"Ĭ":{"x_min":-36.109375,"x_max":420.859375,"ha":389,"o":"m 41 0 l 41 888 l 347 888 l 347 0 l 41 0 l 41 0 m 33 998 l 350 998 l 240 1018 l 240 1094 l 420 1094 l 420 943 l -36 943 l -36 1094 l 130 1094 l 130 1018 l 33 998 "},"ŧ":{"x_min":41.671875,"x_max":916.734375,"ha":958,"o":"m 333 0 l 333 207 l 250 207 l 250 332 l 445 332 l 333 352 l 333 376 l 250 376 l 250 501 l 445 501 l 333 521 l 333 749 l 311 611 l 41 611 l 41 888 l 916 888 l 916 611 l 644 611 l 623 751 l 623 501 l 708 501 l 708 376 l 623 376 l 623 332 l 708 332 l 708 207 l 623 207 l 623 0 l 333 0 "},"À":{"x_min":41.671875,"x_max":929.234375,"ha":972,"o":"m 187 618 l 784 618 l 625 597 l 625 444 l 784 423 l 187 423 l 347 444 l 347 597 l 187 618 m 41 888 l 41 0 l 347 0 l 347 152 l 187 180 l 770 180 l 625 152 l 625 0 l 929 0 l 929 888 l 41 888 m 572 944 l 387 944 l 308 1095 l 487 1095 l 572 944 "},"ẃ":{"x_min":20.828125,"x_max":1034.8125,"ha":1057,"o":"m 637 0 l 534 147 l 429 0 l 180 0 l 20 888 l 312 888 l 395 500 l 323 356 l 451 556 l 616 556 l 751 356 l 675 500 l 743 888 l 1034 888 l 888 0 l 637 0 m 513 1095 l 693 1095 l 613 944 l 429 944 l 513 1095 "},"+":{"x_min":41.21875,"x_max":610.78125,"ha":653,"o":"m 194 139 l 194 285 l 359 305 l 41 305 l 41 583 l 194 583 l 194 736 l 458 736 l 458 603 l 291 583 l 610 583 l 610 305 l 458 305 l 458 139 l 194 139 "},"½":{"x_min":37.5,"x_max":308.359375,"ha":347,"o":"m 40 375 l 133 375 l 133 261 l 81 255 l 261 255 l 212 261 l 212 375 l 305 375 l 305 109 l 212 109 l 212 156 l 263 163 l 81 163 l 40 163 l 40 375 m 37 483 l 308 483 l 308 416 l 37 416 l 37 483 m 304 627 l 130 627 l 130 569 l 136 611 l 304 611 l 304 527 l 41 527 l 41 694 l 216 694 l 216 752 l 211 711 l 41 711 l 41 793 l 304 793 l 304 627 "},"₌":{"x_min":41.671875,"x_max":212.515625,"ha":251,"o":"m 41 179 l 212 179 l 212 108 l 41 108 l 41 179 m 41 70 l 212 70 l 212 0 l 41 0 l 41 70 "},"Ë":{"x_min":41.671875,"x_max":847.296875,"ha":888,"o":"m 137 1070 l 304 1070 l 304 945 l 137 945 l 137 1070 m 581 1070 l 748 1070 l 748 945 l 581 945 l 581 1070 m 354 278 l 847 278 l 847 0 l 41 0 l 41 888 l 847 888 l 847 611 l 354 611 l 333 750 l 333 554 l 777 554 l 777 330 l 333 330 l 333 148 l 354 278 "},"'":{"x_min":41.671875,"x_max":208.34375,"ha":250,"o":"m 41 820 l 41 1111 l 208 1111 l 208 841 l 41 820 "},"Š":{"x_min":41.671875,"x_max":916.734375,"ha":958,"o":"m 41 888 l 916 888 l 916 612 l 354 612 l 333 750 l 333 556 l 916 556 l 916 0 l 41 0 l 41 278 l 602 278 l 623 139 l 623 333 l 41 333 l 41 888 m 369 1000 l 597 1000 l 488 1019 l 527 1095 l 708 1095 l 633 944 l 329 944 l 250 1095 l 429 1095 l 468 1019 l 369 1000 "},"ĳ":{"x_min":41.671875,"x_max":1013.96875,"ha":1056,"o":"m 708 159 l 708 743 l 687 611 l 561 611 l 561 888 l 1013 888 l 1013 0 l 430 0 l 430 277 l 687 277 l 708 159 m 41 0 l 41 888 l 347 888 l 347 0 l 41 0 "},"Р":{"x_min":41.671875,"x_max":930.625,"ha":971,"o":"m 333 757 l 333 277 l 354 416 l 615 416 l 638 416 l 638 618 l 615 618 l 354 618 l 333 757 l 333 757 m 333 166 l 333 0 l 41 0 l 41 888 l 930 888 l 930 166 l 333 166 l 333 166 "},"˛":{"x_min":41.671875,"x_max":206.96875,"ha":238,"o":"m 206 0 l 206 -225 l 41 -225 l 41 -100 l 191 -100 l 95 -79 l 95 -12 l 206 0 "},"щ":{"x_min":42,"x_max":1484.625,"ha":1527,"o":"m 914 271 l 1340 271 l 1193 291 l 1193 888 l 1483 888 l 1483 0 l 42 0 l 42 888 l 334 888 l 334 291 l 189 271 l 610 271 l 610 888 l 915 888 l 914 271 m 1055 -20 l 1152 -146 l 1484 -146 l 1369 0 l 1276 0 l 1055 -20 "},"ð":{"x_min":41.671875,"x_max":929.234375,"ha":972,"o":"m 347 597 l 347 444 l 187 423 l 784 423 l 625 444 l 625 597 l 784 618 l 187 618 l 347 597 m 929 887 l 929 0 l 625 0 l 625 152 l 770 180 l 187 180 l 347 152 l 347 0 l 41 0 l 41 887 l 929 887 "},"⁷":{"x_min":41.671875,"x_max":295.859375,"ha":335,"o":"m 208 844 l 154 807 l 41 807 l 41 887 l 295 887 l 295 809 l 188 708 l 188 622 l 97 622 l 97 743 l 208 844 l 208 844 "},"":{"x_min":-27.78125,"x_max":361.140625,"ha":344,"o":"m 359 -208 l 40 -208 l 41 269 l 62 250 l -27 444 l 63 643 l 41 618 l 41 1107 l 361 1107 l 361 875 l 284 875 l 263 1044 l 263 598 l 194 444 l 263 293 l 263 -147 l 284 13 l 359 13 l 359 -208 "},"ş":{"x_min":41.671875,"x_max":916.734375,"ha":958,"o":"m 41 888 l 916 888 l 916 612 l 354 612 l 333 750 l 333 555 l 916 555 l 916 0 l 41 0 l 41 278 l 602 278 l 623 139 l 623 333 l 41 333 l 41 888 l 41 888 m 450 -212 l 450 -145 l 545 -125 l 395 -125 l 395 0 l 561 0 l 561 -225 l 450 -212 "},"ı":{"x_min":41.671875,"x_max":347.25,"ha":389,"o":"m 41 0 l 41 888 l 347 888 l 347 0 l 41 0 l 41 0 "},"Ć":{"x_min":41.671875,"x_max":855.625,"ha":897,"o":"m 333 764 l 333 138 l 354 270 l 855 270 l 855 0 l 41 0 l 41 888 l 855 888 l 855 618 l 354 618 l 333 764 l 333 764 m 419 1095 l 598 1095 l 519 944 l 334 944 l 419 1095 "},"Т":{"x_min":41.671875,"x_max":916.734375,"ha":958,"o":"m 333 0 l 333 749 l 311 611 l 41 611 l 41 888 l 916 888 l 916 611 l 644 611 l 623 751 l 623 0 l 333 0 l 333 0 "},"ä":{"x_min":42,"x_max":930,"ha":973,"o":"m 783 619 l 186 619 l 346 598 l 346 444 l 186 424 l 783 424 l 624 444 l 624 598 l 783 619 m 930 888 l 930 0 l 624 0 l 624 153 l 783 181 l 200 181 l 346 153 l 346 0 l 42 0 l 42 888 l 930 888 m 181 1071 l 347 1071 l 347 946 l 181 946 l 181 1071 m 625 1071 l 792 1071 l 792 946 l 625 946 l 625 1071 "},"¹":{"x_min":13.890625,"x_max":138.90625,"ha":181,"o":"m 47 794 l 95 801 l 40 801 l 13 801 l 47 888 l 138 888 l 138 622 l 47 622 l 47 794 "},"£":{"x_min":0,"x_max":916.734375,"ha":958,"o":"m 552 559 l 552 335 l 391 335 l 391 159 l 412 278 l 916 278 l 916 0 l 100 0 l 100 314 l 219 335 l 0 335 l 0 559 l 219 559 l 100 575 l 100 888 l 555 888 l 555 611 l 412 611 l 391 743 l 391 559 l 552 559 "},"ů":{"x_min":41.671875,"x_max":929.234375,"ha":972,"o":"m 188 270 l 786 270 l 638 291 l 638 888 l 929 888 l 929 0 l 41 0 l 41 888 l 333 888 l 333 291 l 188 270 l 188 270 m 623 902 l 345 902 l 345 1111 l 623 1111 l 623 902 m 440 1034 l 440 979 l 393 958 l 576 958 l 526 979 l 526 1034 l 576 1055 l 393 1055 l 440 1034 "},"Ō":{"x_min":41.671875,"x_max":929.234375,"ha":972,"o":"m 354 597 l 354 291 l 188 270 l 784 270 l 618 291 l 618 597 l 784 618 l 191 618 l 354 597 m 41 0 l 41 888 l 929 888 l 929 0 l 41 0 m 255 1070 l 713 1070 l 713 945 l 255 945 l 255 1070 "},"W":{"x_min":20.828125,"x_max":1034.8125,"ha":1057,"o":"m 637 0 l 534 147 l 429 0 l 180 0 l 20 888 l 312 888 l 395 500 l 323 356 l 451 556 l 616 556 l 751 356 l 675 500 l 743 888 l 1034 888 l 888 0 l 637 0 l 637 0 "},"а":{"x_min":41.671875,"x_max":929.234375,"ha":972,"o":"m 347 597 l 347 444 l 187 423 l 784 423 l 625 444 l 625 597 l 784 618 l 187 618 l 347 597 m 929 887 l 929 0 l 625 0 l 625 152 l 770 180 l 187 180 l 347 152 l 347 0 l 41 0 l 41 887 l 929 887 "},"Ğ":{"x_min":41.671875,"x_max":929.234375,"ha":972,"o":"m 929 618 l 929 887 l 41 887 l 41 0 l 929 0 l 929 563 l 479 563 l 479 313 l 638 313 l 638 270 l 354 270 l 333 138 l 333 763 l 354 618 l 929 618 m 370 1000 l 598 1000 l 490 1019 l 529 1095 l 709 1095 l 634 944 l 330 944 l 251 1095 l 430 1095 l 469 1019 l 370 1000 "},"v":{"x_min":19.453125,"x_max":918.125,"ha":938,"o":"m 326 277 l 622 277 l 484 298 l 590 888 l 918 888 l 769 0 l 177 0 l 19 888 l 347 888 l 452 298 l 326 277 l 326 277 "},">":{"x_min":18.0625,"x_max":454.203125,"ha":472,"o":"m 18 708 l 281 708 l 454 444 l 281 181 l 18 181 l 191 444 l 18 708 "},"Ї":{"x_min":0,"x_max":388.921875,"ha":389,"o":"m 41 0 l 41 888 l 347 888 l 347 0 l 41 0 l 41 0 m 0 1070 l 166 1070 l 166 945 l 0 945 l 0 1070 m 222 1070 l 388 1070 l 388 945 l 222 945 l 222 1070 "},"ѐ":{"x_min":41.671875,"x_max":847.296875,"ha":888,"o":"m 354 277 l 847 277 l 847 0 l 41 0 l 41 887 l 847 887 l 847 610 l 354 610 l 333 749 l 333 554 l 777 554 l 777 330 l 333 330 l 333 148 l 354 277 l 354 277 m 572 944 l 387 944 l 308 1095 l 487 1095 l 572 944 "},"û":{"x_min":41.671875,"x_max":929.234375,"ha":971,"o":"m 188 270 l 786 270 l 638 291 l 638 888 l 929 888 l 929 0 l 41 0 l 41 888 l 333 888 l 333 291 l 188 270 m 476 1020 l 437 944 l 258 944 l 337 1095 l 641 1095 l 716 944 l 536 944 l 497 1020 l 605 1040 l 377 1040 l 476 1020 "},"Ź":{"x_min":41.671875,"x_max":888.953125,"ha":929,"o":"m 597 743 l 416 618 l 41 618 l 41 887 l 888 887 l 888 625 l 319 131 l 526 277 l 888 277 l 888 0 l 41 0 l 41 277 l 597 743 l 597 743 m 461 1095 l 640 1095 l 561 944 l 376 944 l 461 1095 "},"Ų":{"x_min":41.671875,"x_max":929.234375,"ha":972,"o":"m 188 270 l 786 270 l 638 291 l 638 888 l 929 888 l 929 0 l 41 0 l 41 888 l 333 888 l 333 291 l 188 270 l 188 270 m 833 -12 l 833 -79 l 737 -100 l 887 -100 l 887 -225 l 722 -225 l 722 0 l 833 -12 "},"Ŵ":{"x_min":20.828125,"x_max":1034.8125,"ha":1057,"o":"m 637 0 l 534 147 l 429 0 l 180 0 l 20 888 l 312 888 l 395 500 l 323 356 l 451 556 l 616 556 l 751 356 l 675 500 l 743 888 l 1034 888 l 888 0 l 637 0 m 515 1020 l 476 944 l 297 944 l 376 1095 l 680 1095 l 755 944 l 575 944 l 536 1020 l 644 1040 l 416 1040 l 515 1020 "},"Ð":{"x_min":0,"x_max":930.625,"ha":972,"o":"m 0 555 l 125 555 l 41 576 l 41 888 l 930 888 l 930 0 l 41 0 l 41 312 l 126 333 l 0 333 l 0 555 m 638 270 l 638 618 l 354 618 l 333 757 l 333 576 l 333 555 l 388 555 l 388 333 l 333 333 l 333 314 l 333 145 l 354 270 l 638 270 "},"Х":{"x_min":20.828125,"x_max":918.125,"ha":938,"o":"m 20 888 l 344 888 l 448 710 l 386 564 l 594 888 l 918 888 l 636 439 l 918 0 l 594 0 l 490 177 l 552 323 l 344 0 l 20 0 l 302 439 l 20 888 l 20 888 "},"Ĺ":{"x_min":41.671875,"x_max":861.1875,"ha":903,"o":"m 368 271 l 861 271 l 861 0 l 41 0 l 41 888 l 347 888 l 347 125 l 368 271 l 368 271 m 179 1095 l 358 1095 l 279 944 l 94 944 l 179 1095 "},"r":{"x_min":41.671875,"x_max":929.234375,"ha":971,"o":"m 186 618 l 354 597 l 354 451 l 186 430 l 638 430 l 638 618 l 186 618 m 187 166 l 354 145 l 354 0 l 41 0 l 41 888 l 929 888 l 929 166 l 791 166 l 927 0 l 583 0 l 479 145 l 633 166 l 187 166 "},"₤":{"x_min":0,"x_max":916.734375,"ha":958,"o":"m 552 559 l 552 482 l 473 446 l 552 401 l 552 335 l 391 335 l 391 159 l 412 278 l 916 278 l 916 0 l 100 0 l 100 314 l 219 335 l 0 335 l 0 404 l 80 446 l 0 488 l 0 559 l 219 559 l 100 575 l 100 888 l 555 888 l 555 611 l 412 611 l 391 743 l 391 559 l 552 559 "},"ж":{"x_min":22.21875,"x_max":1501.515625,"ha":1528,"o":"m 22 888 l 380 888 l 380 888 l 579 593 l 604 433 l 604 592 l 604 888 l 919 888 l 919 592 l 836 433 l 1143 888 l 1501 888 l 1195 443 l 1501 0 l 1143 0 l 1016 190 l 884 0 l 638 0 l 506 190 l 380 0 l 22 0 l 327 443 l 22 888 "},"₇":{"x_min":41.671875,"x_max":295.859375,"ha":335,"o":"m 208 222 l 154 184 l 41 184 l 41 265 l 295 265 l 295 187 l 188 86 l 188 0 l 97 0 l 97 120 l 208 222 l 208 222 "},"Č":{"x_min":41.671875,"x_max":855.625,"ha":897,"o":"m 333 764 l 333 138 l 354 270 l 855 270 l 855 0 l 41 0 l 41 888 l 855 888 l 855 618 l 354 618 l 333 764 l 333 764 m 345 1000 l 573 1000 l 465 1019 l 504 1095 l 684 1095 l 609 944 l 305 944 l 226 1095 l 405 1095 l 444 1019 l 345 1000 "},"x":{"x_min":20.828125,"x_max":918.125,"ha":938,"o":"m 20 888 l 344 888 l 448 710 l 386 564 l 594 888 l 918 888 l 636 439 l 918 0 l 594 0 l 490 177 l 552 323 l 344 0 l 20 0 l 302 439 l 20 888 l 20 888 "},"è":{"x_min":41.671875,"x_max":847.296875,"ha":889,"o":"m 572 944 l 387 944 l 308 1095 l 487 1095 l 572 944 m 354 278 l 847 278 l 847 0 l 41 0 l 41 888 l 847 888 l 847 611 l 354 611 l 333 750 l 333 554 l 777 554 l 777 330 l 333 330 l 333 148 l 354 278 "},"Ń":{"x_min":41.671875,"x_max":929.234375,"ha":972,"o":"m 625 528 l 625 888 l 929 888 l 929 0 l 625 0 l 220 571 l 347 359 l 347 0 l 41 0 l 41 888 l 347 888 l 750 316 l 625 528 m 479 1095 l 658 1095 l 579 944 l 394 944 l 479 1095 "},"Ø":{"x_min":40.28125,"x_max":929.234375,"ha":971,"o":"m 40 0 l 40 888 l 626 888 l 580 786 l 647 888 l 929 888 l 929 0 l 347 0 l 388 97 l 326 0 l 40 0 m 331 618 l 333 444 l 333 403 l 333 403 l 469 618 l 331 618 m 637 270 l 637 444 l 730 618 l 505 270 l 637 270 "},"Ỳ":{"x_min":23.609375,"x_max":911.1875,"ha":931,"o":"m 604 266 l 604 0 l 320 0 l 320 266 l 23 888 l 320 888 l 452 601 l 412 468 l 613 888 l 911 888 l 604 266 m 562 944 l 377 944 l 298 1095 l 477 1095 l 562 944 "},"с":{"x_min":41.671875,"x_max":855.625,"ha":897,"o":"m 333 764 l 333 138 l 354 270 l 855 270 l 855 0 l 41 0 l 41 888 l 855 888 l 855 618 l 354 618 l 333 764 l 333 764 "},"÷":{"x_min":41.671875,"x_max":208.34375,"ha":250,"o":"m 41 291 l 208 291 l 208 166 l 41 166 l 41 291 m 41 722 l 208 722 l 208 597 l 41 597 l 41 722 "},"h":{"x_min":41.671875,"x_max":929.234375,"ha":974,"o":"m 41 888 l 354 888 l 354 618 l 183 597 l 777 597 l 618 618 l 618 888 l 929 888 l 929 0 l 618 0 l 618 269 l 788 290 l 183 290 l 354 269 l 354 0 l 41 0 l 41 888 "},".":{"x_min":41.671875,"x_max":208.34375,"ha":251,"o":"m 41 125 l 208 125 l 208 0 l 41 0 l 41 125 "},"f":{"x_min":41.671875,"x_max":847.296875,"ha":888,"o":"m 333 0 l 41 0 l 41 887 l 847 887 l 847 611 l 354 611 l 333 763 l 333 569 l 777 569 l 777 319 l 333 319 l 333 0 l 333 0 "},"“":{"x_min":0,"x_max":375,"ha":376,"o":"m 208 888 l 208 1113 l 375 1113 l 375 988 l 223 988 l 319 967 l 319 900 l 208 888 m 0 888 l 0 1113 l 167 1113 l 167 988 l 15 988 l 111 967 l 111 900 l 0 888 "},"A":{"x_min":41.671875,"x_max":929.234375,"ha":972,"o":"m 347 597 l 347 444 l 187 423 l 784 423 l 625 444 l 625 597 l 784 618 l 187 618 l 347 597 m 929 887 l 929 0 l 625 0 l 625 152 l 770 180 l 187 180 l 347 152 l 347 0 l 41 0 l 41 887 l 929 887 "},"‘":{"x_min":0,"x_max":166.6875,"ha":167,"o":"m 0 887 l 0 1112 l 166 1112 l 166 987 l 15 987 l 111 966 l 111 900 l 0 887 "},"O":{"x_min":41.671875,"x_max":929.234375,"ha":972,"o":"m 191 618 l 354 597 l 354 291 l 188 270 l 784 270 l 618 291 l 618 597 l 784 618 l 191 618 m 929 0 l 41 0 l 41 888 l 929 888 l 929 0 "},"Đ":{"x_min":0,"x_max":930.625,"ha":972,"o":"m 0 555 l 125 555 l 41 576 l 41 888 l 930 888 l 930 0 l 41 0 l 41 312 l 126 333 l 0 333 l 0 555 m 638 270 l 638 618 l 354 618 l 333 757 l 333 576 l 333 555 l 373 555 l 373 333 l 333 333 l 333 314 l 333 145 l 354 270 l 638 270 "},"3":{"x_min":41.078125,"x_max":847,"ha":887,"o":"m 534 278 l 555 148 l 555 333 l 110 333 l 110 557 l 555 557 l 555 750 l 534 612 l 41 612 l 41 888 l 847 888 l 847 467 l 763 445 l 847 422 l 847 0 l 41 0 l 41 278 l 534 278 l 534 278 "},"9":{"x_min":41.671875,"x_max":930.625,"ha":972,"o":"m 638 757 l 618 618 l 356 618 l 333 618 l 333 416 l 356 416 l 618 416 l 638 277 l 638 757 m 638 166 l 41 166 l 41 888 l 930 888 l 930 0 l 638 0 l 638 166 "},"ⁱ":{"x_min":13.890625,"x_max":138.90625,"ha":181,"o":"m 47 794 l 95 801 l 40 801 l 13 801 l 47 888 l 138 888 l 138 622 l 47 622 l 47 794 "},"Ǿ":{"x_min":40.28125,"x_max":929.234375,"ha":971,"o":"m 40 0 l 40 888 l 626 888 l 580 786 l 647 888 l 929 888 l 929 0 l 347 0 l 388 97 l 326 0 l 40 0 m 331 618 l 333 444 l 333 403 l 333 403 l 469 618 l 331 618 m 637 270 l 637 444 l 730 618 l 505 270 l 637 270 m 450 1095 l 629 1095 l 550 944 l 365 944 l 450 1095 "},"⅛":{"x_min":37.5,"x_max":308.359375,"ha":347,"o":"m 127 700 l 176 707 l 120 707 l 94 707 l 127 793 l 219 793 l 219 527 l 127 527 l 127 700 m 37 483 l 308 483 l 308 416 l 37 416 l 37 483 m 129 234 l 129 197 l 84 190 l 259 190 l 220 197 l 220 234 l 129 234 m 84 294 l 129 288 l 129 263 l 220 263 l 220 288 l 259 294 l 84 294 m 87 244 l 41 256 l 41 375 l 308 375 l 308 255 l 259 244 l 308 244 l 308 109 l 41 109 l 41 244 l 87 244 "},"l":{"x_min":41.671875,"x_max":861.1875,"ha":903,"o":"m 368 271 l 861 271 l 861 0 l 41 0 l 41 888 l 347 888 l 347 125 l 368 271 l 368 271 "},"⅔":{"x_min":37,"x_max":308,"ha":347,"o":"m 37 484 l 308 484 l 308 417 l 37 417 l 37 484 m 206 154 l 206 210 l 72 210 l 72 277 l 206 277 l 206 334 l 199 293 l 52 293 l 52 375 l 294 375 l 294 250 l 269 243 l 294 236 l 294 110 l 51 110 l 51 193 l 199 193 l 206 154 m 304 628 l 130 628 l 130 569 l 135 611 l 304 611 l 304 528 l 41 528 l 41 695 l 216 695 l 216 752 l 210 711 l 41 711 l 41 793 l 304 793 l 304 628 "},"4":{"x_min":41.671875,"x_max":929.234375,"ha":986,"o":"m 41 888 l 352 888 l 352 508 l 181 487 l 777 487 l 618 508 l 618 888 l 929 888 l 929 0 l 618 0 l 618 159 l 788 180 l 181 180 l 41 180 l 41 888 l 41 888 "},"Ẁ":{"x_min":20.828125,"x_max":1034.8125,"ha":1057,"o":"m 418 0 l 166 0 l 20 888 l 312 888 l 380 500 l 304 356 l 438 556 l 604 556 l 732 356 l 659 500 l 743 888 l 1034 888 l 875 0 l 626 0 l 520 147 l 418 0 l 418 0 m 626 944 l 441 944 l 362 1095 l 541 1095 l 626 944 "},"Ъ":{"x_min":43.0625,"x_max":1080.640625,"ha":1121,"o":"m 1080 721 l 1080 0 l 191 0 l 191 744 l 190 743 l 169 611 l 43 611 l 43 888 l 483 888 l 483 721 l 1080 721 m 504 269 l 788 269 l 788 471 l 504 471 l 483 610 l 483 130 l 504 269 "},"Ť":{"x_min":41.671875,"x_max":916.734375,"ha":958,"o":"m 333 0 l 333 749 l 311 611 l 41 611 l 41 888 l 916 888 l 916 611 l 644 611 l 623 751 l 623 0 l 333 0 l 333 0 m 365 1000 l 593 1000 l 484 1019 l 523 1095 l 704 1095 l 629 944 l 325 944 l 245 1095 l 425 1095 l 463 1019 l 365 1000 "},"Ś":{"x_min":41.671875,"x_max":916.734375,"ha":958,"o":"m 41 888 l 916 888 l 916 612 l 354 612 l 333 750 l 333 556 l 916 556 l 916 0 l 41 0 l 41 278 l 602 278 l 623 139 l 623 333 l 41 333 l 41 888 m 455 1095 l 634 1095 l 555 944 l 370 944 l 455 1095 "},"Ü":{"x_min":41.671875,"x_max":929.234375,"ha":974,"o":"m 188 270 l 786 270 l 638 291 l 638 888 l 929 888 l 929 0 l 41 0 l 41 888 l 333 888 l 333 291 l 188 270 m 180 1070 l 347 1070 l 347 945 l 180 945 l 180 1070 m 625 1070 l 791 1070 l 791 945 l 625 945 l 625 1070 "},"à":{"x_min":41.671875,"x_max":929.234375,"ha":972,"o":"m 187 618 l 784 618 l 625 597 l 625 444 l 784 423 l 187 423 l 347 444 l 347 597 l 187 618 m 41 888 l 41 0 l 347 0 l 347 152 l 187 180 l 770 180 l 625 152 l 625 0 l 929 0 l 929 888 l 41 888 m 572 944 l 387 944 l 308 1095 l 487 1095 l 572 944 "},"ó":{"x_min":41.671875,"x_max":929.234375,"ha":971,"o":"m 354 597 l 354 291 l 188 270 l 784 270 l 618 291 l 618 597 l 784 618 l 191 618 l 354 597 m 41 0 l 41 888 l 929 888 l 929 0 l 41 0 m 450 1095 l 629 1095 l 550 944 l 365 944 l 450 1095 "},"ŗ":{"x_min":41.671875,"x_max":929.234375,"ha":971,"o":"m 186 618 l 354 597 l 354 451 l 186 430 l 638 430 l 638 618 l 186 618 m 187 166 l 354 145 l 354 0 l 41 0 l 41 888 l 929 888 l 929 166 l 791 166 l 927 0 l 583 0 l 479 145 l 633 166 l 187 166 m 441 -240 l 441 -173 l 537 -152 l 387 -152 l 387 -27 l 552 -27 l 552 -252 l 441 -240 "},"₀":{"x_min":41.671875,"x_max":305.578125,"ha":347,"o":"m 134 179 l 134 87 l 86 80 l 261 80 l 211 87 l 211 179 l 261 184 l 86 184 l 134 179 m 41 0 l 41 265 l 305 265 l 305 0 l 41 0 "}}}
